<?xml version="1.0" encoding="utf-8" standalone="no"?>
<!DOCTYPE svg PUBLIC "-//W3C//DTD SVG 1.1//EN"
  "http://www.w3.org/Graphics/SVG/1.1/DTD/svg11.dtd">
<svg xmlns:xlink="http://www.w3.org/1999/xlink" width="820.8pt" height="309.6pt" viewBox="0 0 820.8 309.6" xmlns="http://www.w3.org/2000/svg" version="1.1">
 <metadata>
  <rdf:RDF xmlns:dc="http://purl.org/dc/elements/1.1/" xmlns:cc="http://creativecommons.org/ns#" xmlns:rdf="http://www.w3.org/1999/02/22-rdf-syntax-ns#">
   <cc:Work>
    <dc:type rdf:resource="http://purl.org/dc/dcmitype/StillImage"/>
    <dc:date>2026-09-27T18:23:35.030320</dc:date>
    <dc:format>image/svg+xml</dc:format>
    <dc:creator>
     <cc:Agent>
      <dc:title>Matplotlib v3.11.2, https://matplotlib.org/</dc:title>
     </cc:Agent>
    </dc:creator>
   </cc:Work>
  </rdf:RDF>
 </metadata>
 <defs>
  <style type="text/css">*{stroke-linejoin: round; stroke-linecap: butt}</style>
 </defs>
 <g id="figure_1">
  <g id="patch_1">
   <path d="M 0 309.6 
L 820.8 309.6 
L 820.8 0 
L 0 0 
z
" style="fill: #ffffff"/>
  </g>
  <g id="axes_1">
   <g id="patch_2">
    <path d="M 42.840625 271.4 
L 405 271.4 
L 405 22.66 
L 42.840625 22.66 
z
" style="fill: #ffffff"/>
   </g>
   <g id="matplotlib.axis_1">
    <g id="xtick_1">
     <g id="line2d_1">
      <path d="M 95.88417 271.4 
L 95.88417 22.66 
" clip-path="url(#pbf2c8c5531)" style="fill: none; stroke-dasharray: 0.8,1.32; stroke-dashoffset: 0; stroke: #b0b0b0; stroke-opacity: 0.35; stroke-width: 0.8"/>
     </g>
     <g id="line2d_2">
      <defs>
       <path id="m6cca17c498" d="M 0 0 
L 0 3.5 
" style="stroke: #000000; stroke-width: 0.8"/>
      </defs>
      <g>
       <use xlink:href="#m6cca17c498" x="95.88417" y="271.4" style="stroke: #000000; stroke-width: 0.8"/>
      </g>
     </g>
     <g id="text_1">
      <!-- 0.2 -->
      <g transform="translate(88.563857 287) scale(0.1 -0.1)">
       <defs>
        <path id="PingFangSC-Regular-13" d="M 1920 4659 
C 1370 4659 960 4422 685 3936 
C 442 3526 320 2976 320 2285 
C 320 1594 442 1043 685 634 
C 960 154 1370 -90 1920 -90 
C 2464 -90 2874 154 3155 634 
C 3398 1043 3520 1594 3520 2285 
C 3520 2976 3398 3526 3155 3936 
C 2874 4422 2464 4659 1920 4659 
z
M 1920 4211 
C 2330 4211 2624 3994 2803 3552 
C 2931 3245 3002 2822 3002 2285 
C 3002 1754 2931 1331 2803 1018 
C 2624 582 2330 358 1920 358 
C 1510 358 1216 582 1037 1018 
C 909 1331 845 1754 845 2285 
C 845 2822 909 3245 1037 3552 
C 1216 3994 1510 4211 1920 4211 
z
" transform="scale(0.015625)"/>
        <path id="PingFangSC-Regular-11" d="M 845 762 
C 730 762 640 723 570 646 
C 493 570 454 480 454 365 
C 454 256 493 166 570 90 
C 640 13 730 -26 845 -26 
C 947 -26 1043 13 1120 90 
C 1197 166 1235 256 1235 365 
C 1235 480 1197 570 1120 646 
C 1043 723 947 762 845 762 
z
" transform="scale(0.015625)"/>
        <path id="PingFangSC-Regular-15" d="M 1984 4659 
C 1523 4659 1146 4506 864 4198 
C 582 3898 435 3488 435 2976 
L 960 2976 
C 966 3379 1062 3686 1242 3891 
C 1408 4109 1651 4211 1965 4211 
C 2259 4211 2496 4134 2662 3981 
C 2829 3827 2912 3616 2912 3334 
C 2912 3040 2790 2765 2560 2515 
C 2438 2387 2202 2202 1843 1946 
C 1357 1613 1030 1338 851 1133 
C 544 794 397 416 397 0 
L 3443 0 
L 3443 467 
L 1043 467 
C 1126 774 1459 1126 2042 1517 
C 2515 1837 2829 2086 2989 2253 
C 3283 2573 3437 2931 3437 3328 
C 3437 3725 3296 4051 3027 4294 
C 2752 4538 2406 4659 1984 4659 
z
" transform="scale(0.015625)"/>
       </defs>
       <use xlink:href="#PingFangSC-Regular-13"/>
       <use xlink:href="#PingFangSC-Regular-11" transform="translate(60 0)"/>
       <use xlink:href="#PingFangSC-Regular-15" transform="translate(86.40625 0)"/>
      </g>
     </g>
    </g>
    <g id="xtick_2">
     <g id="line2d_3">
      <path d="M 169.04768 271.4 
L 169.04768 22.66 
" clip-path="url(#pbf2c8c5531)" style="fill: none; stroke-dasharray: 0.8,1.32; stroke-dashoffset: 0; stroke: #b0b0b0; stroke-opacity: 0.35; stroke-width: 0.8"/>
     </g>
     <g id="line2d_4">
      <g>
       <use xlink:href="#m6cca17c498" x="169.04768" y="271.4" style="stroke: #000000; stroke-width: 0.8"/>
      </g>
     </g>
     <g id="text_2">
      <!-- 0.4 -->
      <g transform="translate(161.727367 287) scale(0.1 -0.1)">
       <defs>
        <path id="PingFangSC-Regular-17" d="M 2458 4570 
L 154 1536 
L 154 1037 
L 2451 1037 
L 2451 0 
L 2950 0 
L 2950 1037 
L 3693 1037 
L 3693 1466 
L 2950 1466 
L 2950 4570 
L 2458 4570 
z
M 2432 3885 
L 2451 3885 
L 2451 1466 
L 595 1466 
L 2432 3885 
z
" transform="scale(0.015625)"/>
       </defs>
       <use xlink:href="#PingFangSC-Regular-13"/>
       <use xlink:href="#PingFangSC-Regular-11" transform="translate(60 0)"/>
       <use xlink:href="#PingFangSC-Regular-17" transform="translate(86.40625 0)"/>
      </g>
     </g>
    </g>
    <g id="xtick_3">
     <g id="line2d_5">
      <path d="M 242.21119 271.4 
L 242.21119 22.66 
" clip-path="url(#pbf2c8c5531)" style="fill: none; stroke-dasharray: 0.8,1.32; stroke-dashoffset: 0; stroke: #b0b0b0; stroke-opacity: 0.35; stroke-width: 0.8"/>
     </g>
     <g id="line2d_6">
      <g>
       <use xlink:href="#m6cca17c498" x="242.21119" y="271.4" style="stroke: #000000; stroke-width: 0.8"/>
      </g>
     </g>
     <g id="text_3">
      <!-- 0.6 -->
      <g transform="translate(234.890878 287) scale(0.1 -0.1)">
       <defs>
        <path id="PingFangSC-Regular-19" d="M 1984 4659 
C 1466 4659 1056 4422 755 3942 
C 467 3488 326 2893 326 2163 
C 326 1466 454 922 723 531 
C 1005 122 1421 -90 1978 -90 
C 2426 -90 2790 64 3085 358 
C 3373 653 3520 1030 3520 1478 
C 3520 1926 3386 2285 3123 2566 
C 2854 2848 2502 2989 2067 2989 
C 1798 2989 1562 2925 1357 2790 
C 1139 2662 979 2477 864 2240 
L 838 2240 
C 832 2323 832 2381 832 2406 
C 832 2925 928 3354 1133 3686 
C 1338 4045 1619 4218 1978 4218 
C 2509 4218 2822 3962 2925 3437 
L 3443 3437 
C 3315 4256 2829 4659 1984 4659 
z
M 1965 2554 
C 2278 2554 2528 2458 2720 2253 
C 2906 2061 3002 1805 3002 1478 
C 3002 1152 2906 883 2714 666 
C 2522 461 2272 352 1965 352 
C 1645 352 1395 461 1203 678 
C 1011 883 922 1146 922 1466 
C 922 1786 1018 2042 1216 2246 
C 1414 2451 1664 2554 1965 2554 
z
" transform="scale(0.015625)"/>
       </defs>
       <use xlink:href="#PingFangSC-Regular-13"/>
       <use xlink:href="#PingFangSC-Regular-11" transform="translate(60 0)"/>
       <use xlink:href="#PingFangSC-Regular-19" transform="translate(86.40625 0)"/>
      </g>
     </g>
    </g>
    <g id="xtick_4">
     <g id="line2d_7">
      <path d="M 315.3747 271.4 
L 315.3747 22.66 
" clip-path="url(#pbf2c8c5531)" style="fill: none; stroke-dasharray: 0.8,1.32; stroke-dashoffset: 0; stroke: #b0b0b0; stroke-opacity: 0.35; stroke-width: 0.8"/>
     </g>
     <g id="line2d_8">
      <g>
       <use xlink:href="#m6cca17c498" x="315.3747" y="271.4" style="stroke: #000000; stroke-width: 0.8"/>
      </g>
     </g>
     <g id="text_4">
      <!-- 0.8 -->
      <g transform="translate(308.054388 287) scale(0.1 -0.1)">
       <defs>
        <path id="PingFangSC-Regular-1b" d="M 1920 4659 
C 1440 4659 1069 4538 800 4288 
C 550 4064 429 3782 429 3450 
C 429 3206 486 3002 602 2835 
C 723 2656 902 2522 1146 2438 
L 1146 2426 
C 902 2368 704 2234 538 2029 
C 358 1811 269 1555 269 1261 
C 269 858 410 531 691 288 
C 979 38 1389 -90 1920 -90 
C 2445 -90 2854 38 3149 288 
C 3430 531 3571 858 3571 1261 
C 3571 1555 3482 1811 3302 2029 
C 3136 2234 2931 2368 2694 2426 
L 2694 2438 
C 2931 2522 3110 2656 3238 2835 
C 3354 3002 3411 3206 3411 3450 
C 3411 3782 3283 4064 3040 4288 
C 2771 4538 2394 4659 1920 4659 
z
M 1920 4230 
C 2240 4230 2496 4147 2682 3981 
C 2835 3840 2918 3654 2918 3430 
C 2918 3200 2848 3008 2707 2867 
C 2534 2701 2272 2611 1920 2611 
C 1562 2611 1299 2701 1133 2867 
C 992 3008 922 3200 922 3430 
C 922 3654 998 3840 1158 3981 
C 1338 4147 1594 4230 1920 4230 
z
M 1920 2202 
C 2285 2202 2573 2112 2778 1926 
C 2957 1760 3053 1536 3053 1261 
C 3053 992 2957 774 2778 608 
C 2573 429 2291 339 1920 339 
C 1549 339 1261 429 1069 602 
C 877 768 787 992 787 1261 
C 787 1536 877 1760 1069 1926 
C 1267 2112 1549 2202 1920 2202 
z
" transform="scale(0.015625)"/>
       </defs>
       <use xlink:href="#PingFangSC-Regular-13"/>
       <use xlink:href="#PingFangSC-Regular-11" transform="translate(60 0)"/>
       <use xlink:href="#PingFangSC-Regular-1b" transform="translate(86.40625 0)"/>
      </g>
     </g>
    </g>
    <g id="xtick_5">
     <g id="line2d_9">
      <path d="M 388.53821 271.4 
L 388.53821 22.66 
" clip-path="url(#pbf2c8c5531)" style="fill: none; stroke-dasharray: 0.8,1.32; stroke-dashoffset: 0; stroke: #b0b0b0; stroke-opacity: 0.35; stroke-width: 0.8"/>
     </g>
     <g id="line2d_10">
      <g>
       <use xlink:href="#m6cca17c498" x="388.53821" y="271.4" style="stroke: #000000; stroke-width: 0.8"/>
      </g>
     </g>
     <g id="text_5">
      <!-- 1.0 -->
      <g transform="translate(382.21321 287) scale(0.1 -0.1)">
       <defs>
        <path id="PingFangSC-Regular-14" d="M 1472 4570 
C 1318 4397 1139 4243 922 4102 
C 704 3974 486 3885 282 3827 
L 282 3302 
C 710 3430 1069 3635 1357 3930 
L 1357 0 
L 1882 0 
L 1882 4570 
L 1472 4570 
z
" transform="scale(0.015625)"/>
       </defs>
       <use xlink:href="#PingFangSC-Regular-14"/>
       <use xlink:href="#PingFangSC-Regular-11" transform="translate(40.09375 0)"/>
       <use xlink:href="#PingFangSC-Regular-13" transform="translate(66.5 0)"/>
      </g>
     </g>
    </g>
    <g id="text_6">
     <!-- 覆盖率（只服务最自信的 x%） -->
     <g transform="translate(154.860156 301) scale(0.1 -0.1)">
      <defs>
       <path id="PingFangSC-Regular-195f" d="M 3162 1107 
C 2957 826 2579 608 2022 454 
L 2208 128 
C 2432 198 2630 282 2810 378 
C 3021 205 3283 51 3590 -90 
C 3136 -192 2598 -250 1984 -275 
L 2150 -640 
C 2938 -595 3610 -480 4160 -294 
C 4653 -448 5242 -563 5920 -640 
L 6112 -269 
C 5587 -224 5114 -160 4691 -70 
C 5030 102 5306 314 5523 563 
L 5523 826 
L 3386 826 
C 3456 915 3520 1005 3571 1107 
L 5504 1107 
L 5504 2464 
L 2707 2464 
C 2797 2554 2880 2650 2957 2752 
L 5805 2752 
L 5805 3053 
L 3149 3053 
C 3200 3142 3245 3245 3283 3354 
L 5562 3354 
L 5562 4390 
L 4122 4390 
L 4122 4717 
L 5926 4717 
L 5926 5069 
L 486 5069 
L 486 4717 
L 2285 4717 
L 2285 4390 
L 845 4390 
L 845 3354 
L 2867 3354 
C 2707 2982 2419 2656 2010 2381 
L 2240 2080 
C 2368 2170 2483 2266 2598 2368 
L 2598 1107 
L 3162 1107 
z
M 4128 70 
C 3712 198 3373 352 3110 531 
L 4966 531 
C 4749 352 4474 198 4128 70 
z
M 3699 4390 
L 2707 4390 
L 2707 4717 
L 3699 4717 
L 3699 4390 
z
M 5139 3648 
L 4122 3648 
L 4122 4090 
L 5139 4090 
L 5139 3648 
z
M 3699 3648 
L 2707 3648 
L 2707 4090 
L 3699 4090 
L 3699 3648 
z
M 2285 3648 
L 1274 3648 
L 1274 4090 
L 2285 4090 
L 2285 3648 
z
M 5094 1376 
L 3002 1376 
L 3002 1677 
L 5094 1677 
L 5094 1376 
z
M 3002 1907 
L 3002 2195 
L 5094 2195 
L 5094 1907 
L 3002 1907 
z
M 1683 3277 
C 1421 2899 1005 2566 442 2272 
L 563 1882 
C 1242 2240 1734 2650 2035 3110 
L 1683 3277 
z
M 1728 2163 
C 1446 1702 992 1299 378 947 
L 499 544 
C 730 678 947 819 1152 973 
L 1152 -646 
L 1574 -646 
L 1574 1338 
C 1779 1542 1952 1766 2093 1997 
L 1728 2163 
z
" transform="scale(0.015625)"/>
       <path id="PingFangSC-Regular-134d" d="M 5318 1594 
L 1050 1594 
L 1050 13 
L 352 13 
L 352 -422 
L 6048 -422 
L 6048 13 
L 5318 13 
L 5318 1594 
z
M 1498 13 
L 1498 1171 
L 2368 1171 
L 2368 13 
L 1498 13 
z
M 2778 13 
L 2778 1171 
L 3616 1171 
L 3616 13 
L 2778 13 
z
M 4026 13 
L 4026 1171 
L 4870 1171 
L 4870 13 
L 4026 13 
z
M 646 4493 
L 646 4077 
L 2963 4077 
L 2963 3501 
L 998 3501 
L 998 3098 
L 2963 3098 
L 2963 2541 
L 410 2541 
L 410 2112 
L 5990 2112 
L 5990 2541 
L 3437 2541 
L 3437 3098 
L 5427 3098 
L 5427 3501 
L 3437 3501 
L 3437 4077 
L 5754 4077 
L 5754 4493 
L 4307 4493 
C 4442 4717 4544 4960 4621 5216 
L 4166 5280 
C 4096 5005 3987 4742 3840 4493 
L 2554 4493 
C 2451 4774 2342 5030 2227 5254 
L 1766 5178 
C 1888 4973 1997 4742 2099 4493 
L 646 4493 
z
" transform="scale(0.015625)"/>
       <path id="PingFangSC-Regular-1232" d="M 448 4691 
L 448 4256 
L 2803 4256 
C 2598 3840 2330 3533 1997 3334 
L 2086 2963 
C 2458 2989 2816 3021 3162 3046 
C 2765 2598 2426 2291 2144 2131 
L 1978 2093 
L 2067 1690 
C 2374 1715 2669 1741 2963 1773 
L 2963 1082 
L 352 1082 
L 352 640 
L 2963 640 
L 2963 -666 
L 3437 -666 
L 3437 640 
L 6061 640 
L 6061 1082 
L 3437 1082 
L 3437 1830 
C 3648 1856 3859 1888 4064 1926 
C 4115 1792 4173 1645 4224 1491 
L 4640 1677 
C 4486 2099 4301 2496 4090 2867 
L 3699 2739 
C 3770 2598 3840 2445 3917 2278 
C 3533 2214 3136 2157 2726 2106 
C 3187 2490 3731 3072 4346 3853 
L 3936 4019 
C 3782 3814 3635 3622 3488 3437 
L 2650 3360 
C 2880 3590 3091 3891 3277 4256 
L 5952 4256 
L 5952 4691 
L 3430 4691 
C 3341 4922 3245 5120 3142 5299 
L 2675 5222 
C 2784 5062 2880 4883 2970 4691 
L 448 4691 
z
M 1517 2765 
C 1216 2413 877 2106 506 1843 
L 813 1498 
C 1178 1766 1530 2099 1862 2509 
L 1517 2765 
z
M 883 4038 
L 563 3731 
C 947 3456 1254 3194 1472 2944 
L 1792 3264 
C 1549 3520 1242 3782 883 4038 
z
M 4896 2765 
L 4602 2483 
C 5011 2138 5331 1805 5562 1498 
L 5894 1830 
C 5626 2138 5293 2451 4896 2765 
z
M 5395 4058 
C 5146 3763 4870 3501 4563 3277 
L 4851 2944 
C 5165 3174 5466 3456 5754 3795 
L 5395 4058 
z
" transform="scale(0.015625)"/>
       <path id="PingFangSC-Regular-481" d="M 5440 5293 
C 5158 4883 4941 4442 4781 3974 
C 4589 3424 4499 2867 4499 2298 
C 4499 1741 4589 1184 4781 634 
C 4941 173 5158 -269 5440 -685 
L 5888 -685 
C 5632 -256 5427 186 5280 640 
C 5088 1203 4998 1760 4998 2304 
C 4998 2854 5088 3405 5280 3968 
C 5427 4429 5632 4870 5888 5293 
L 5440 5293 
z
" transform="scale(0.015625)"/>
       <path id="PingFangSC-Regular-75d" d="M 1152 4864 
L 1152 1958 
L 5248 1958 
L 5248 4864 
L 1152 4864 
z
M 4794 2400 
L 1606 2400 
L 1606 4416 
L 4794 4416 
L 4794 2400 
z
M 4365 1619 
L 3994 1382 
C 4678 634 5216 -51 5600 -672 
L 5997 -390 
C 5619 179 5075 851 4365 1619 
z
M 2029 1613 
C 1587 838 1056 173 435 -384 
L 845 -672 
C 1459 -83 1990 608 2438 1414 
L 2029 1613 
z
" transform="scale(0.015625)"/>
       <path id="PingFangSC-Regular-e50" d="M 1165 3040 
L 2195 3040 
L 2195 1971 
L 1165 1971 
L 1165 3040 
z
M 2195 3456 
L 1165 3456 
L 1165 4538 
L 2195 4538 
L 2195 3456 
z
M 1158 1555 
L 2195 1555 
L 2195 109 
C 2195 -122 2112 -237 1952 -237 
C 1798 -237 1638 -224 1459 -211 
L 1568 -621 
L 2080 -621 
C 2438 -621 2618 -422 2618 -38 
L 2618 4954 
L 749 4954 
L 749 1882 
C 742 986 614 243 358 -333 
L 704 -653 
C 966 -77 1120 659 1158 1555 
z
M 3590 2189 
L 3744 2189 
C 3885 1562 4160 998 4570 499 
C 4314 192 4006 -58 3642 -256 
L 3885 -627 
C 4269 -422 4595 -160 4877 166 
C 5171 -122 5517 -384 5926 -621 
L 6157 -230 
C 5766 -6 5427 243 5139 525 
C 5434 986 5645 1549 5766 2208 
L 5766 2598 
L 3590 2598 
L 3590 4538 
L 5299 4538 
C 5286 4051 5261 3738 5216 3597 
C 5178 3501 5120 3437 5043 3411 
C 4966 3392 4858 3379 4704 3379 
C 4525 3379 4384 3386 4275 3386 
L 4397 2989 
L 4915 2989 
C 5318 2989 5555 3123 5632 3386 
C 5709 3642 5747 4166 5747 4960 
L 3155 4960 
L 3155 -646 
L 3590 -646 
L 3590 2189 
z
M 4141 2189 
L 5357 2189 
C 5242 1683 5069 1242 4832 858 
C 4506 1254 4275 1696 4141 2189 
z
" transform="scale(0.015625)"/>
       <path id="PingFangSC-Regular-6d3" d="M 2202 5248 
C 1933 4608 1408 4070 640 3629 
L 922 3258 
C 1216 3437 1478 3635 1722 3853 
C 2029 3584 2362 3341 2720 3130 
C 2016 2848 1203 2643 275 2515 
L 486 2080 
C 1523 2240 2438 2502 3219 2861 
C 4013 2464 4915 2208 5926 2093 
L 6138 2522 
C 5248 2611 4442 2810 3718 3117 
C 4307 3450 4806 3853 5216 4326 
L 5216 4698 
L 2426 4698 
C 2515 4851 2598 5011 2669 5184 
L 2202 5248 
z
M 3213 3354 
C 2784 3578 2387 3846 2029 4160 
L 2112 4262 
L 4557 4262 
C 4179 3917 3731 3610 3213 3354 
z
M 2822 2400 
C 2822 2144 2797 1901 2746 1670 
L 710 1670 
L 710 1254 
L 2618 1254 
C 2566 1126 2496 1005 2419 890 
C 2086 422 1389 32 339 -275 
L 646 -653 
C 1824 -282 2573 198 2899 774 
C 2982 928 3053 1088 3104 1254 
L 4998 1254 
C 4979 614 4922 218 4826 64 
C 4723 -90 4486 -173 4102 -179 
L 3347 -147 
L 3462 -563 
C 3757 -576 4006 -589 4211 -589 
C 4666 -589 4986 -480 5171 -269 
C 5357 -58 5453 589 5466 1670 
L 3213 1670 
C 3251 1901 3277 2144 3277 2400 
L 2822 2400 
z
" transform="scale(0.015625)"/>
       <path id="PingFangSC-Regular-e4b" d="M 384 2733 
L 384 2362 
L 998 2362 
L 998 147 
L 403 122 
L 461 -275 
C 1350 -224 2099 -160 2707 -90 
L 2707 -653 
L 3155 -653 
L 3155 -32 
C 3283 -6 3411 13 3526 32 
L 3526 397 
C 3411 378 3283 358 3155 339 
L 3155 2362 
L 6029 2362 
L 6029 2733 
L 384 2733 
z
M 1414 166 
L 1414 717 
L 2707 717 
L 2707 282 
C 2323 237 1888 198 1414 166 
z
M 1414 1056 
L 1414 1536 
L 2707 1536 
L 2707 1056 
L 1414 1056 
z
M 1414 1882 
L 1414 2362 
L 2707 2362 
L 2707 1882 
L 1414 1882 
z
M 1197 4998 
L 1197 3155 
L 5242 3155 
L 5242 4998 
L 1197 4998 
z
M 4800 3488 
L 1638 3488 
L 1638 3917 
L 4800 3917 
L 4800 3488 
z
M 1638 4243 
L 1638 4653 
L 4800 4653 
L 4800 4243 
L 1638 4243 
z
M 3693 1555 
C 3821 1088 4058 672 4416 301 
C 4141 70 3808 -122 3424 -288 
L 3661 -646 
C 4077 -467 4435 -250 4730 6 
C 5018 -230 5376 -448 5798 -646 
L 6035 -262 
C 5638 -96 5306 90 5024 301 
C 5331 659 5549 1082 5670 1574 
L 5670 1933 
L 3488 1933 
L 3488 1555 
L 3693 1555 
z
M 4698 576 
C 4403 864 4205 1190 4090 1555 
L 5254 1555 
C 5139 1197 4954 870 4698 576 
z
" transform="scale(0.015625)"/>
       <path id="PingFangSC-Regular-16d4" d="M 5350 4467 
L 2899 4467 
C 3027 4685 3130 4928 3200 5184 
L 2733 5248 
C 2669 4979 2560 4723 2419 4467 
L 1050 4467 
L 1050 -634 
L 1517 -634 
L 1517 -237 
L 4883 -237 
L 4883 -634 
L 5350 -634 
L 5350 4467 
z
M 1517 205 
L 1517 1248 
L 4883 1248 
L 4883 205 
L 1517 205 
z
M 1517 1670 
L 1517 2650 
L 4883 2650 
L 4883 1670 
L 1517 1670 
z
M 1517 3072 
L 1517 4026 
L 4883 4026 
L 4883 3072 
L 1517 3072 
z
" transform="scale(0.015625)"/>
       <path id="PingFangSC-Regular-5de" d="M 986 2944 
L 986 -653 
L 1440 -653 
L 1440 3699 
C 1664 4134 1850 4595 2003 5088 
L 1574 5286 
C 1286 4288 832 3398 205 2624 
L 352 2131 
C 582 2387 794 2662 986 2944 
z
M 1978 4384 
L 1978 3949 
L 6144 3949 
L 6144 4384 
L 4128 4384 
L 4371 4474 
C 4294 4710 4192 4966 4058 5248 
L 3616 5126 
C 3744 4883 3853 4640 3949 4384 
L 1978 4384 
z
M 2566 3430 
L 2566 3014 
L 5594 3014 
L 5594 3430 
L 2566 3430 
z
M 2566 2528 
L 2566 2106 
L 5594 2106 
L 5594 2528 
L 2566 2528 
z
M 5709 1581 
L 2445 1581 
L 2445 -640 
L 2893 -640 
L 2893 -294 
L 5261 -294 
L 5261 -640 
L 5709 -640 
L 5709 1581 
z
M 2893 141 
L 2893 1152 
L 5261 1152 
L 5261 141 
L 2893 141 
z
" transform="scale(0.015625)"/>
       <path id="PingFangSC-Regular-1331" d="M 2586 4122 
L 1555 4122 
C 1683 4442 1779 4794 1856 5171 
L 1395 5235 
C 1338 4851 1248 4480 1120 4122 
L 525 4122 
L 525 -429 
L 973 -429 
L 973 122 
L 2138 122 
L 2138 -243 
L 2586 -243 
L 2586 4122 
z
M 973 550 
L 973 1952 
L 2138 1952 
L 2138 550 
L 973 550 
z
M 973 2368 
L 973 3686 
L 2138 3686 
L 2138 2368 
L 973 2368 
z
M 3699 2637 
L 3328 2406 
C 3770 1882 4122 1408 4384 986 
L 4749 1242 
C 4506 1638 4160 2106 3699 2637 
z
M 5894 4115 
L 3853 4115 
C 3968 4448 4058 4806 4134 5184 
L 3680 5242 
C 3514 4333 3213 3565 2765 2938 
L 3040 2573 
C 3290 2899 3501 3264 3680 3667 
L 5440 3667 
C 5427 1824 5402 717 5363 358 
C 5312 32 5139 -134 4838 -134 
C 4640 -134 4410 -128 4141 -115 
L 4250 -538 
C 4557 -550 4774 -563 4902 -563 
C 5440 -563 5734 -314 5798 173 
C 5862 672 5894 1990 5894 4115 
z
" transform="scale(0.015625)"/>
       <path id="PingFangSC-Regular-3" transform="scale(0.015625)"/>
       <path id="PingFangSC-Regular-5b" d="M 173 3309 
L 1344 1754 
L 32 0 
L 640 0 
L 1632 1376 
L 2618 0 
L 3226 0 
L 1914 1754 
L 3085 3309 
L 2483 3309 
L 1632 2131 
L 774 3309 
L 173 3309 
z
" transform="scale(0.015625)"/>
       <path id="PingFangSC-Regular-8" d="M 4730 2502 
C 4384 2502 4122 2381 3942 2125 
C 3776 1907 3699 1613 3699 1248 
C 3699 890 3776 602 3942 371 
C 4122 128 4384 0 4730 0 
C 5069 0 5331 128 5517 371 
C 5677 595 5760 890 5760 1248 
C 5760 1613 5677 1907 5517 2125 
C 5331 2381 5069 2502 4730 2502 
z
M 4179 4659 
L 1613 -90 
L 2029 -90 
L 4589 4659 
L 4179 4659 
z
M 1478 4570 
C 1133 4570 870 4448 691 4192 
C 525 3974 448 3680 448 3315 
C 448 2957 525 2669 691 2438 
C 870 2195 1133 2067 1478 2067 
C 1818 2067 2080 2195 2266 2438 
C 2426 2662 2509 2957 2509 3315 
C 2509 3680 2426 3974 2266 4192 
C 2080 4448 1818 4570 1478 4570 
z
M 4730 2157 
C 4922 2157 5062 2067 5158 1882 
C 5235 1728 5280 1517 5280 1248 
C 5280 986 5235 781 5158 627 
C 5062 442 4922 346 4730 346 
C 4531 346 4390 442 4301 621 
C 4218 774 4179 986 4179 1248 
C 4179 1523 4218 1734 4301 1888 
C 4390 2067 4531 2157 4730 2157 
z
M 1478 4224 
C 1670 4224 1811 4134 1901 3949 
C 1984 3795 2029 3584 2029 3315 
C 2029 3053 1984 2848 1907 2694 
C 1811 2509 1670 2413 1478 2413 
C 1280 2413 1139 2509 1050 2688 
C 966 2842 928 3053 928 3315 
C 928 3590 966 3802 1050 3955 
C 1139 4134 1280 4224 1478 4224 
z
" transform="scale(0.015625)"/>
       <path id="PingFangSC-Regular-482" d="M 512 5293 
C 768 4870 966 4429 1120 3968 
C 1306 3405 1402 2854 1402 2304 
C 1402 1760 1306 1203 1120 640 
C 966 186 768 -256 512 -685 
L 960 -685 
C 1235 -269 1453 173 1619 634 
C 1805 1184 1901 1741 1901 2298 
C 1901 2867 1805 3424 1619 3974 
C 1453 4442 1235 4883 960 5293 
L 512 5293 
z
" transform="scale(0.015625)"/>
      </defs>
      <use xlink:href="#PingFangSC-Regular-195f"/>
      <use xlink:href="#PingFangSC-Regular-134d" transform="translate(100 0)"/>
      <use xlink:href="#PingFangSC-Regular-1232" transform="translate(200 0)"/>
      <use xlink:href="#PingFangSC-Regular-481" transform="translate(300 0)"/>
      <use xlink:href="#PingFangSC-Regular-75d" transform="translate(400 0)"/>
      <use xlink:href="#PingFangSC-Regular-e50" transform="translate(500 0)"/>
      <use xlink:href="#PingFangSC-Regular-6d3" transform="translate(600 0)"/>
      <use xlink:href="#PingFangSC-Regular-e4b" transform="translate(700 0)"/>
      <use xlink:href="#PingFangSC-Regular-16d4" transform="translate(800 0)"/>
      <use xlink:href="#PingFangSC-Regular-5de" transform="translate(900 0)"/>
      <use xlink:href="#PingFangSC-Regular-1331" transform="translate(1000 0)"/>
      <use xlink:href="#PingFangSC-Regular-3" transform="translate(1100 0)"/>
      <use xlink:href="#PingFangSC-Regular-5b" transform="translate(1133.296875 0)"/>
      <use xlink:href="#PingFangSC-Regular-8" transform="translate(1184.203125 0)"/>
      <use xlink:href="#PingFangSC-Regular-482" transform="translate(1281.203125 0)"/>
     </g>
    </g>
   </g>
   <g id="matplotlib.axis_2">
    <g id="ytick_1">
     <g id="line2d_11">
      <path d="M 42.840625 271.4 
L 405 271.4 
" clip-path="url(#pbf2c8c5531)" style="fill: none; stroke-dasharray: 0.8,1.32; stroke-dashoffset: 0; stroke: #b0b0b0; stroke-opacity: 0.35; stroke-width: 0.8"/>
     </g>
     <g id="line2d_12">
      <defs>
       <path id="m4beb47a70a" d="M 0 0 
L -3.5 0 
" style="stroke: #000000; stroke-width: 0.8"/>
      </defs>
      <g>
       <use xlink:href="#m4beb47a70a" x="42.840625" y="271.4" style="stroke: #000000; stroke-width: 0.8"/>
      </g>
     </g>
     <g id="text_7">
      <!-- 0.5 -->
      <g transform="translate(21.2 275.7) scale(0.1 -0.1)">
       <defs>
        <path id="PingFangSC-Regular-18" d="M 672 4570 
L 429 2048 
L 928 2048 
C 1018 2227 1158 2368 1338 2458 
C 1510 2554 1702 2598 1920 2598 
C 2253 2598 2515 2502 2701 2298 
C 2893 2099 2995 1818 2995 1453 
C 2995 1133 2886 870 2682 666 
C 2470 461 2208 358 1888 358 
C 1606 358 1370 429 1190 563 
C 986 717 870 941 845 1229 
L 326 1229 
C 358 813 531 480 851 237 
C 1133 19 1478 -90 1882 -90 
C 2330 -90 2714 51 3021 326 
C 3347 621 3514 998 3514 1459 
C 3514 1952 3373 2336 3104 2618 
C 2835 2893 2483 3027 2048 3027 
C 1837 3027 1645 2995 1466 2918 
C 1267 2842 1101 2726 973 2573 
L 947 2573 
L 1101 4102 
L 3328 4102 
L 3328 4570 
L 672 4570 
z
" transform="scale(0.015625)"/>
       </defs>
       <use xlink:href="#PingFangSC-Regular-13"/>
       <use xlink:href="#PingFangSC-Regular-11" transform="translate(60 0)"/>
       <use xlink:href="#PingFangSC-Regular-18" transform="translate(86.40625 0)"/>
      </g>
     </g>
    </g>
    <g id="ytick_2">
     <g id="line2d_13">
      <path d="M 42.840625 223.565385 
L 405 223.565385 
" clip-path="url(#pbf2c8c5531)" style="fill: none; stroke-dasharray: 0.8,1.32; stroke-dashoffset: 0; stroke: #b0b0b0; stroke-opacity: 0.35; stroke-width: 0.8"/>
     </g>
     <g id="line2d_14">
      <g>
       <use xlink:href="#m4beb47a70a" x="42.840625" y="223.565385" style="stroke: #000000; stroke-width: 0.8"/>
      </g>
     </g>
     <g id="text_8">
      <!-- 0.6 -->
      <g transform="translate(21.2 227.865385) scale(0.1 -0.1)">
       <use xlink:href="#PingFangSC-Regular-13"/>
       <use xlink:href="#PingFangSC-Regular-11" transform="translate(60 0)"/>
       <use xlink:href="#PingFangSC-Regular-19" transform="translate(86.40625 0)"/>
      </g>
     </g>
    </g>
    <g id="ytick_3">
     <g id="line2d_15">
      <path d="M 42.840625 175.730769 
L 405 175.730769 
" clip-path="url(#pbf2c8c5531)" style="fill: none; stroke-dasharray: 0.8,1.32; stroke-dashoffset: 0; stroke: #b0b0b0; stroke-opacity: 0.35; stroke-width: 0.8"/>
     </g>
     <g id="line2d_16">
      <g>
       <use xlink:href="#m4beb47a70a" x="42.840625" y="175.730769" style="stroke: #000000; stroke-width: 0.8"/>
      </g>
     </g>
     <g id="text_9">
      <!-- 0.7 -->
      <g transform="translate(21.729688 180.030769) scale(0.1 -0.1)">
       <defs>
        <path id="PingFangSC-Regular-1a" d="M 218 4570 
L 218 4090 
L 2682 4090 
L 979 0 
L 1536 0 
L 3219 4141 
L 3219 4570 
L 218 4570 
z
" transform="scale(0.015625)"/>
       </defs>
       <use xlink:href="#PingFangSC-Regular-13"/>
       <use xlink:href="#PingFangSC-Regular-11" transform="translate(60 0)"/>
       <use xlink:href="#PingFangSC-Regular-1a" transform="translate(86.40625 0)"/>
      </g>
     </g>
    </g>
    <g id="ytick_4">
     <g id="line2d_17">
      <path d="M 42.840625 127.896154 
L 405 127.896154 
" clip-path="url(#pbf2c8c5531)" style="fill: none; stroke-dasharray: 0.8,1.32; stroke-dashoffset: 0; stroke: #b0b0b0; stroke-opacity: 0.35; stroke-width: 0.8"/>
     </g>
     <g id="line2d_18">
      <g>
       <use xlink:href="#m4beb47a70a" x="42.840625" y="127.896154" style="stroke: #000000; stroke-width: 0.8"/>
      </g>
     </g>
     <g id="text_10">
      <!-- 0.8 -->
      <g transform="translate(21.2 132.196154) scale(0.1 -0.1)">
       <use xlink:href="#PingFangSC-Regular-13"/>
       <use xlink:href="#PingFangSC-Regular-11" transform="translate(60 0)"/>
       <use xlink:href="#PingFangSC-Regular-1b" transform="translate(86.40625 0)"/>
      </g>
     </g>
    </g>
    <g id="ytick_5">
     <g id="line2d_19">
      <path d="M 42.840625 80.061538 
L 405 80.061538 
" clip-path="url(#pbf2c8c5531)" style="fill: none; stroke-dasharray: 0.8,1.32; stroke-dashoffset: 0; stroke: #b0b0b0; stroke-opacity: 0.35; stroke-width: 0.8"/>
     </g>
     <g id="line2d_20">
      <g>
       <use xlink:href="#m4beb47a70a" x="42.840625" y="80.061538" style="stroke: #000000; stroke-width: 0.8"/>
      </g>
     </g>
     <g id="text_11">
      <!-- 0.9 -->
      <g transform="translate(21.2 84.361538) scale(0.1 -0.1)">
       <defs>
        <path id="PingFangSC-Regular-1c" d="M 1869 4659 
C 1421 4659 1050 4512 762 4211 
C 467 3917 326 3546 326 3091 
C 326 2650 454 2291 717 2016 
C 986 1728 1338 1581 1779 1581 
C 2048 1581 2285 1651 2490 1779 
C 2701 1914 2867 2099 2982 2330 
L 3008 2330 
C 3008 2253 3014 2195 3014 2163 
C 3014 1651 2912 1222 2714 883 
C 2502 531 2221 352 1869 352 
C 1331 352 1018 614 922 1133 
L 403 1133 
C 525 320 1011 -90 1862 -90 
C 2374 -90 2784 154 3091 627 
C 3373 1088 3520 1677 3520 2406 
C 3520 3110 3386 3661 3117 4045 
C 2835 4454 2419 4659 1869 4659 
z
M 1882 4218 
C 2195 4218 2451 4109 2643 3891 
C 2829 3686 2925 3424 2925 3104 
C 2925 2790 2822 2528 2630 2323 
C 2426 2118 2176 2016 1882 2016 
C 1562 2016 1312 2118 1126 2317 
C 934 2509 845 2771 845 3091 
C 845 3424 934 3693 1126 3904 
C 1318 4115 1568 4218 1882 4218 
z
" transform="scale(0.015625)"/>
       </defs>
       <use xlink:href="#PingFangSC-Regular-13"/>
       <use xlink:href="#PingFangSC-Regular-11" transform="translate(60 0)"/>
       <use xlink:href="#PingFangSC-Regular-1c" transform="translate(86.40625 0)"/>
      </g>
     </g>
    </g>
    <g id="ytick_6">
     <g id="line2d_21">
      <path d="M 42.840625 32.226923 
L 405 32.226923 
" clip-path="url(#pbf2c8c5531)" style="fill: none; stroke-dasharray: 0.8,1.32; stroke-dashoffset: 0; stroke: #b0b0b0; stroke-opacity: 0.35; stroke-width: 0.8"/>
     </g>
     <g id="line2d_22">
      <g>
       <use xlink:href="#m4beb47a70a" x="42.840625" y="32.226923" style="stroke: #000000; stroke-width: 0.8"/>
      </g>
     </g>
     <g id="text_12">
      <!-- 1.0 -->
      <g transform="translate(23.190625 36.526923) scale(0.1 -0.1)">
       <use xlink:href="#PingFangSC-Regular-14"/>
       <use xlink:href="#PingFangSC-Regular-11" transform="translate(40.09375 0)"/>
       <use xlink:href="#PingFangSC-Regular-13" transform="translate(66.5 0)"/>
      </g>
     </g>
    </g>
    <g id="text_13">
     <!-- 该子集上的 intent 准确率 -->
     <g transform="translate(15.8 203.555) rotate(-90) scale(0.1 -0.1)">
      <defs>
       <path id="PingFangSC-Regular-19c6" d="M 2426 4525 
L 2426 4109 
L 3776 4109 
C 3315 3424 2938 3002 2643 2842 
C 2618 2829 2592 2816 2554 2803 
L 2656 2406 
C 3226 2426 3763 2451 4262 2483 
C 3789 1997 3200 1632 2496 1395 
L 2739 1011 
C 3930 1440 4838 2234 5459 3398 
L 5069 3603 
C 4928 3347 4774 3104 4608 2880 
C 4147 2848 3686 2822 3226 2803 
C 3526 3066 3878 3501 4282 4109 
L 6144 4109 
L 6144 4525 
L 4602 4525 
C 4499 4819 4390 5082 4288 5312 
L 3808 5235 
C 3936 5018 4045 4781 4141 4525 
L 2426 4525 
z
M 4666 646 
C 5146 211 5530 -211 5818 -608 
L 6150 -275 
C 5818 128 5421 525 4960 922 
C 5389 1357 5766 1869 6086 2445 
L 5696 2656 
C 4928 1235 3770 282 2227 -211 
L 2477 -608 
C 3309 -326 4038 96 4666 646 
z
M 1050 5152 
L 730 4838 
C 1184 4499 1542 4179 1805 3878 
L 2118 4192 
C 1824 4512 1472 4832 1050 5152 
z
M 269 3270 
L 269 2829 
L 1210 2829 
L 1210 269 
C 1210 166 1158 77 1069 -6 
L 1248 -416 
C 1683 -128 2099 205 2490 576 
L 2362 1062 
C 2112 819 1875 602 1651 416 
L 1651 3270 
L 269 3270 
z
" transform="scale(0.015625)"/>
       <path id="PingFangSC-Regular-9fc" d="M 403 2477 
L 403 2029 
L 3098 2029 
L 3098 128 
C 3098 -64 2995 -166 2790 -166 
C 2419 -166 2080 -160 1760 -147 
L 1882 -595 
L 2976 -595 
C 3366 -595 3565 -403 3565 -19 
L 3565 2029 
L 5997 2029 
L 5997 2477 
L 3565 2477 
L 3565 3149 
C 4218 3578 4794 4032 5299 4512 
L 5299 4947 
L 1075 4947 
L 1075 4512 
L 4672 4512 
C 4173 4077 3648 3699 3098 3386 
L 3098 2477 
L 403 2477 
z
" transform="scale(0.015625)"/>
       <path id="PingFangSC-Regular-1d5e" d="M 2413 915 
C 2042 538 1363 198 378 -102 
L 621 -499 
C 1715 -102 2464 371 2867 915 
L 2989 915 
L 2989 -646 
L 3450 -646 
L 3450 915 
L 3571 915 
C 4019 346 4768 -115 5830 -474 
L 6029 -64 
C 5126 179 4454 506 4019 915 
L 5958 915 
L 5958 1331 
L 3450 1331 
L 3450 1664 
L 2989 1664 
L 2989 1331 
L 442 1331 
L 442 915 
L 2413 915 
z
M 1069 3635 
L 1069 1837 
L 5773 1837 
L 5773 2227 
L 3616 2227 
L 3616 2682 
L 5414 2682 
L 5414 3040 
L 3616 3040 
L 3616 3462 
L 5414 3462 
L 5414 3821 
L 3616 3821 
L 3616 4256 
L 5651 4256 
L 5651 4640 
L 3584 4640 
C 3501 4870 3418 5082 3328 5267 
L 2854 5190 
C 2957 5024 3046 4838 3136 4640 
L 1754 4640 
C 1830 4800 1907 4966 1971 5139 
L 1542 5248 
C 1261 4557 838 3955 269 3443 
L 531 3085 
C 723 3264 902 3443 1069 3635 
z
M 3162 2227 
L 1498 2227 
L 1498 2682 
L 3162 2682 
L 3162 2227 
z
M 3162 3040 
L 1498 3040 
L 1498 3462 
L 3162 3462 
L 3162 3040 
z
M 3162 3821 
L 1498 3821 
L 1498 4205 
L 1530 4256 
L 3162 4256 
L 3162 3821 
z
" transform="scale(0.015625)"/>
       <path id="PingFangSC-Regular-4e4" d="M 2662 5229 
L 2662 64 
L 358 64 
L 358 -384 
L 6054 -384 
L 6054 64 
L 3136 64 
L 3136 2803 
L 5510 2803 
L 5510 3251 
L 3136 3251 
L 3136 5229 
L 2662 5229 
z
" transform="scale(0.015625)"/>
       <path id="PingFangSC-Regular-4c" d="M 819 4557 
C 710 4557 621 4525 544 4448 
C 467 4384 435 4294 435 4179 
C 435 4070 467 3981 544 3904 
C 621 3834 710 3795 819 3795 
C 928 3795 1018 3834 1094 3904 
C 1171 3981 1210 4070 1210 4179 
C 1210 4294 1171 4384 1094 4448 
C 1018 4525 928 4557 819 4557 
z
M 563 3309 
L 563 0 
L 1075 0 
L 1075 3309 
L 563 3309 
z
" transform="scale(0.015625)"/>
       <path id="PingFangSC-Regular-51" d="M 1946 3398 
C 1728 3398 1530 3347 1350 3245 
C 1171 3149 1024 3008 909 2822 
L 909 3309 
L 397 3309 
L 397 0 
L 909 0 
L 909 1997 
C 928 2298 1024 2534 1203 2714 
C 1370 2880 1568 2963 1798 2963 
C 2374 2963 2669 2643 2669 1997 
L 2669 0 
L 3181 0 
L 3181 2035 
C 3181 2944 2765 3398 1946 3398 
z
" transform="scale(0.015625)"/>
       <path id="PingFangSC-Regular-57" d="M 1280 4378 
L 774 4166 
L 774 3309 
L 109 3309 
L 109 2880 
L 774 2880 
L 774 774 
C 774 525 826 339 934 211 
C 1050 70 1248 0 1517 0 
L 2016 0 
L 2016 429 
L 1594 429 
C 1478 429 1395 461 1350 512 
C 1299 563 1280 653 1280 774 
L 1280 2880 
L 2099 2880 
L 2099 3309 
L 1280 3309 
L 1280 4378 
z
" transform="scale(0.015625)"/>
       <path id="PingFangSC-Regular-48" d="M 1760 3398 
C 1280 3398 902 3226 621 2880 
C 339 2554 205 2144 205 1658 
C 205 1120 346 698 640 378 
C 922 70 1306 -90 1779 -90 
C 2208 -90 2560 38 2835 282 
C 3059 486 3206 742 3283 1062 
L 2771 1062 
C 2688 832 2579 659 2438 544 
C 2272 410 2048 339 1779 339 
C 1466 339 1216 442 1037 646 
C 858 851 762 1139 736 1510 
L 3347 1510 
C 3334 2086 3206 2541 2963 2861 
C 2694 3219 2291 3398 1760 3398 
z
M 1773 2970 
C 2400 2970 2752 2618 2816 1907 
L 749 1907 
C 781 2234 883 2490 1062 2682 
C 1242 2874 1478 2970 1773 2970 
z
" transform="scale(0.015625)"/>
       <path id="PingFangSC-Regular-675" d="M 710 5018 
L 320 4774 
C 749 4230 1088 3738 1331 3296 
L 1715 3558 
C 1485 3974 1146 4461 710 5018 
z
M 1331 2234 
C 1050 1338 710 454 326 -410 
L 762 -595 
C 1120 237 1453 1120 1747 2067 
L 1331 2234 
z
M 2848 2394 
L 4173 2394 
L 4173 1517 
L 2848 1517 
L 2848 2394 
z
M 2848 1088 
L 4173 1088 
L 4173 134 
L 2848 134 
L 2848 1088 
z
M 2848 -294 
L 6099 -294 
L 6099 134 
L 4614 134 
L 4614 1088 
L 5843 1088 
L 5843 1517 
L 4614 1517 
L 4614 2394 
L 5830 2394 
L 5830 2822 
L 4614 2822 
L 4614 3699 
L 5965 3699 
L 5965 4134 
L 4525 4134 
L 4698 4198 
C 4614 4525 4499 4890 4346 5286 
L 3904 5158 
C 4051 4832 4173 4493 4275 4134 
L 2912 4134 
C 3046 4461 3162 4800 3258 5152 
L 2816 5242 
C 2586 4339 2195 3507 1638 2752 
L 1792 2266 
C 2010 2541 2214 2829 2400 3130 
L 2400 -646 
L 2848 -646 
L 2848 -294 
z
M 4173 3699 
L 4173 2822 
L 2848 2822 
L 2848 3699 
L 4173 3699 
z
" transform="scale(0.015625)"/>
       <path id="PingFangSC-Regular-13df" d="M 3354 2112 
L 4179 2112 
L 4179 1293 
L 3347 1293 
C 3347 1350 3354 1408 3354 1459 
L 3354 2112 
z
M 3315 890 
L 4179 890 
L 4179 -525 
L 4595 -525 
L 4595 890 
L 5453 890 
L 5453 32 
C 5453 -96 5389 -166 5261 -166 
C 5120 -166 4973 -154 4813 -141 
L 4922 -557 
L 5395 -557 
C 5722 -557 5888 -410 5888 -122 
L 5888 3712 
L 4813 3712 
C 5005 3904 5197 4147 5389 4429 
L 5389 4755 
L 3846 4755 
C 3910 4883 3981 5011 4045 5146 
L 3603 5242 
C 3277 4576 2861 4032 2355 3616 
L 2643 3277 
C 2733 3354 2829 3443 2925 3533 
L 2925 1434 
C 2912 730 2752 141 2432 -320 
L 2765 -621 
C 3059 -211 3238 288 3315 890 
z
M 4314 3712 
L 3098 3712 
C 3277 3910 3450 4128 3610 4365 
L 4858 4365 
C 4678 4122 4499 3904 4314 3712 
z
M 5453 1293 
L 4595 1293 
L 4595 2112 
L 5453 2112 
L 5453 1293 
z
M 5453 2522 
L 4595 2522 
L 4595 3302 
L 5453 3302 
L 5453 2522 
z
M 4179 3302 
L 4179 2522 
L 3354 2522 
L 3354 3302 
L 4179 3302 
z
M 429 4870 
L 429 4422 
L 1152 4422 
C 1005 3494 704 2669 243 1946 
L 512 1517 
C 627 1696 742 1882 851 2080 
L 851 -429 
L 1286 -429 
L 1286 58 
L 2406 58 
L 2406 2970 
L 1242 2970 
C 1395 3418 1517 3904 1600 4422 
L 2566 4422 
L 2566 4870 
L 429 4870 
z
M 1286 474 
L 1286 2547 
L 1984 2547 
L 1984 474 
L 1286 474 
z
" transform="scale(0.015625)"/>
      </defs>
      <use xlink:href="#PingFangSC-Regular-19c6"/>
      <use xlink:href="#PingFangSC-Regular-9fc" transform="translate(100 0)"/>
      <use xlink:href="#PingFangSC-Regular-1d5e" transform="translate(200 0)"/>
      <use xlink:href="#PingFangSC-Regular-4e4" transform="translate(300 0)"/>
      <use xlink:href="#PingFangSC-Regular-1331" transform="translate(400 0)"/>
      <use xlink:href="#PingFangSC-Regular-3" transform="translate(500 0)"/>
      <use xlink:href="#PingFangSC-Regular-4c" transform="translate(533.296875 0)"/>
      <use xlink:href="#PingFangSC-Regular-51" transform="translate(558.890625 0)"/>
      <use xlink:href="#PingFangSC-Regular-57" transform="translate(614.796875 0)"/>
      <use xlink:href="#PingFangSC-Regular-48" transform="translate(650.296875 0)"/>
      <use xlink:href="#PingFangSC-Regular-51" transform="translate(705.796875 0)"/>
      <use xlink:href="#PingFangSC-Regular-57" transform="translate(761.703125 0)"/>
      <use xlink:href="#PingFangSC-Regular-3" transform="translate(797.203125 0)"/>
      <use xlink:href="#PingFangSC-Regular-675" transform="translate(830.5 0)"/>
      <use xlink:href="#PingFangSC-Regular-13df" transform="translate(930.5 0)"/>
      <use xlink:href="#PingFangSC-Regular-1232" transform="translate(1030.5 0)"/>
     </g>
    </g>
   </g>
   <g id="line2d_23">
    <path d="M 59.302415 241.503365 
L 114.175047 223.565385 
L 205.629435 215.577004 
L 297.083823 223.565385 
L 351.956455 222.656527 
L 388.53821 227.535658 
" clip-path="url(#pbf2c8c5531)" style="fill: none; stroke: #854f0b; stroke-width: 1.5; stroke-linecap: square"/>
    <defs>
     <path id="md95aa811ec" d="M 0 3 
C 0.795609 3 1.55874 2.683901 2.12132 2.12132 
C 2.683901 1.55874 3 0.795609 3 0 
C 3 -0.795609 2.683901 -1.55874 2.12132 -2.12132 
C 1.55874 -2.683901 0.795609 -3 0 -3 
C -0.795609 -3 -1.55874 -2.683901 -2.12132 -2.12132 
C -2.683901 -1.55874 -3 -0.795609 -3 0 
C -3 0.795609 -2.683901 1.55874 -2.12132 2.12132 
C -1.55874 2.683901 -0.795609 3 0 3 
z
" style="stroke: #854f0b"/>
    </defs>
    <g clip-path="url(#pbf2c8c5531)">
     <use xlink:href="#md95aa811ec" x="59.302415" y="241.503365" style="fill: #854f0b; stroke: #854f0b"/>
     <use xlink:href="#md95aa811ec" x="114.175047" y="223.565385" style="fill: #854f0b; stroke: #854f0b"/>
     <use xlink:href="#md95aa811ec" x="205.629435" y="215.577004" style="fill: #854f0b; stroke: #854f0b"/>
     <use xlink:href="#md95aa811ec" x="297.083823" y="223.565385" style="fill: #854f0b; stroke: #854f0b"/>
     <use xlink:href="#md95aa811ec" x="351.956455" y="222.656527" style="fill: #854f0b; stroke: #854f0b"/>
     <use xlink:href="#md95aa811ec" x="388.53821" y="227.535658" style="fill: #854f0b; stroke: #854f0b"/>
    </g>
   </g>
   <g id="line2d_24">
    <path d="M 42.840625 227.535658 
L 405 227.535658 
" clip-path="url(#pbf2c8c5531)" style="fill: none; stroke-dasharray: 2.96,1.28; stroke-dashoffset: 0; stroke: #854f0b; stroke-opacity: 0.45; stroke-width: 0.8"/>
   </g>
   <g id="line2d_25">
    <path d="M 59.302415 32.226923 
L 114.175047 32.226923 
L 205.629435 48.15585 
L 297.083823 60.114504 
L 351.956455 69.872765 
L 388.53821 77.095792 
" clip-path="url(#pbf2c8c5531)" style="fill: none; stroke: #185fa5; stroke-width: 1.5; stroke-linecap: square"/>
    <defs>
     <path id="mddf71e059e" d="M 0 3 
C 0.795609 3 1.55874 2.683901 2.12132 2.12132 
C 2.683901 1.55874 3 0.795609 3 0 
C 3 -0.795609 2.683901 -1.55874 2.12132 -2.12132 
C 1.55874 -2.683901 0.795609 -3 0 -3 
C -0.795609 -3 -1.55874 -2.683901 -2.12132 -2.12132 
C -2.683901 -1.55874 -3 -0.795609 -3 0 
C -3 0.795609 -2.683901 1.55874 -2.12132 2.12132 
C -1.55874 2.683901 -0.795609 3 0 3 
z
" style="stroke: #185fa5"/>
    </defs>
    <g clip-path="url(#pbf2c8c5531)">
     <use xlink:href="#mddf71e059e" x="59.302415" y="32.226923" style="fill: #185fa5; stroke: #185fa5"/>
     <use xlink:href="#mddf71e059e" x="114.175047" y="32.226923" style="fill: #185fa5; stroke: #185fa5"/>
     <use xlink:href="#mddf71e059e" x="205.629435" y="48.15585" style="fill: #185fa5; stroke: #185fa5"/>
     <use xlink:href="#mddf71e059e" x="297.083823" y="60.114504" style="fill: #185fa5; stroke: #185fa5"/>
     <use xlink:href="#mddf71e059e" x="351.956455" y="69.872765" style="fill: #185fa5; stroke: #185fa5"/>
     <use xlink:href="#mddf71e059e" x="388.53821" y="77.095792" style="fill: #185fa5; stroke: #185fa5"/>
    </g>
   </g>
   <g id="line2d_26">
    <path d="M 42.840625 77.095792 
L 405 77.095792 
" clip-path="url(#pbf2c8c5531)" style="fill: none; stroke-dasharray: 2.96,1.28; stroke-dashoffset: 0; stroke: #185fa5; stroke-opacity: 0.45; stroke-width: 0.8"/>
   </g>
   <g id="line2d_27">
    <path d="M 59.302415 32.226923 
L 114.175047 32.226923 
L 205.629435 38.20625 
L 297.083823 45.524946 
L 351.956455 68.772569 
L 388.53821 81.066065 
" clip-path="url(#pbf2c8c5531)" style="fill: none; stroke: #534ab7; stroke-width: 1.5; stroke-linecap: square"/>
    <defs>
     <path id="m039676b59d" d="M 0 3 
C 0.795609 3 1.55874 2.683901 2.12132 2.12132 
C 2.683901 1.55874 3 0.795609 3 0 
C 3 -0.795609 2.683901 -1.55874 2.12132 -2.12132 
C 1.55874 -2.683901 0.795609 -3 0 -3 
C -0.795609 -3 -1.55874 -2.683901 -2.12132 -2.12132 
C -2.683901 -1.55874 -3 -0.795609 -3 0 
C -3 0.795609 -2.683901 1.55874 -2.12132 2.12132 
C -1.55874 2.683901 -0.795609 3 0 3 
z
" style="stroke: #534ab7"/>
    </defs>
    <g clip-path="url(#pbf2c8c5531)">
     <use xlink:href="#m039676b59d" x="59.302415" y="32.226923" style="fill: #534ab7; stroke: #534ab7"/>
     <use xlink:href="#m039676b59d" x="114.175047" y="32.226923" style="fill: #534ab7; stroke: #534ab7"/>
     <use xlink:href="#m039676b59d" x="205.629435" y="38.20625" style="fill: #534ab7; stroke: #534ab7"/>
     <use xlink:href="#m039676b59d" x="297.083823" y="45.524946" style="fill: #534ab7; stroke: #534ab7"/>
     <use xlink:href="#m039676b59d" x="351.956455" y="68.772569" style="fill: #534ab7; stroke: #534ab7"/>
     <use xlink:href="#m039676b59d" x="388.53821" y="81.066065" style="fill: #534ab7; stroke: #534ab7"/>
    </g>
   </g>
   <g id="line2d_28">
    <path d="M 42.840625 81.066065 
L 405 81.066065 
" clip-path="url(#pbf2c8c5531)" style="fill: none; stroke-dasharray: 2.96,1.28; stroke-dashoffset: 0; stroke: #534ab7; stroke-opacity: 0.45; stroke-width: 0.8"/>
   </g>
   <g id="patch_3">
    <path d="M 42.840625 271.4 
L 42.840625 22.66 
" style="fill: none; stroke: #000000; stroke-width: 0.8; stroke-linejoin: miter; stroke-linecap: square"/>
   </g>
   <g id="patch_4">
    <path d="M 405 271.4 
L 405 22.66 
" style="fill: none; stroke: #000000; stroke-width: 0.8; stroke-linejoin: miter; stroke-linecap: square"/>
   </g>
   <g id="patch_5">
    <path d="M 42.840625 271.4 
L 405 271.4 
" style="fill: none; stroke: #000000; stroke-width: 0.8; stroke-linejoin: miter; stroke-linecap: square"/>
   </g>
   <g id="patch_6">
    <path d="M 42.840625 22.66 
L 405 22.66 
" style="fill: none; stroke: #000000; stroke-width: 0.8; stroke-linejoin: miter; stroke-linecap: square"/>
   </g>
   <g id="text_14">
    <!-- 风险-覆盖曲线（虚线为各自全量基线） -->
    <g transform="translate(127.092812 16.66) scale(0.11 -0.11)">
     <defs>
      <path id="PingFangSC-Regular-1dda" d="M 2157 3763 
L 1779 3533 
C 2195 3008 2579 2502 2925 2010 
C 2541 1434 2061 934 1491 499 
L 1798 109 
C 2349 525 2816 1018 3213 1594 
C 3533 1120 3814 659 4070 218 
L 4486 499 
C 4211 966 3878 1478 3488 2029 
C 3808 2592 4064 3219 4256 3910 
L 3802 3987 
C 3648 3437 3443 2918 3187 2438 
C 2874 2861 2528 3302 2157 3763 
z
M 1018 4973 
L 1018 2490 
C 998 1363 762 422 314 -326 
L 698 -640 
C 1203 205 1466 1248 1478 2490 
L 1478 4525 
L 4685 4525 
L 4685 2413 
C 4685 1210 4755 416 4909 26 
C 5050 -371 5267 -576 5574 -576 
C 5690 -576 5798 -499 5894 -346 
C 5984 -166 6067 160 6144 640 
L 5734 838 
C 5677 256 5606 -38 5523 -38 
C 5421 -38 5338 109 5267 397 
C 5190 691 5158 1363 5158 2413 
L 5158 4973 
L 1018 4973 
z
" transform="scale(0.015625)"/>
      <path id="PingFangSC-Regular-1d3e" d="M 544 4954 
L 544 -646 
L 992 -646 
L 992 4531 
L 1984 4531 
C 1824 3994 1600 3386 1312 2720 
C 1741 2176 1958 1683 1958 1242 
C 1958 1114 1920 1024 1850 973 
C 1773 922 1619 890 1402 877 
C 1338 877 1254 890 1158 902 
L 1306 442 
C 1734 448 2035 525 2214 666 
C 2342 787 2406 979 2406 1242 
C 2374 1702 2163 2221 1766 2790 
C 2022 3418 2246 4026 2438 4602 
L 2438 4954 
L 544 4954 
z
M 3194 3334 
L 3194 2950 
L 5190 2950 
L 5190 3322 
C 5414 3091 5670 2880 5958 2675 
L 6208 3059 
C 5344 3674 4736 4384 4390 5203 
L 3974 5203 
C 3558 4320 2963 3597 2195 3040 
L 2426 2675 
C 2694 2867 2950 3085 3194 3334 
z
M 5139 3373 
L 3232 3373 
C 3584 3757 3898 4211 4179 4749 
C 4416 4250 4736 3789 5139 3373 
z
M 2272 26 
L 2272 -416 
L 6067 -416 
L 6067 26 
L 4979 26 
C 5280 730 5536 1530 5747 2438 
L 5299 2560 
C 5082 1562 4819 717 4518 26 
L 2272 26 
z
M 3014 2330 
L 2618 2195 
C 2854 1619 3053 1011 3206 384 
L 3610 486 
C 3430 1178 3232 1792 3014 2330 
z
M 4032 2579 
L 3635 2451 
C 3834 1888 4000 1306 4128 691 
L 4525 794 
C 4384 1466 4218 2061 4032 2579 
z
" transform="scale(0.015625)"/>
      <path id="PingFangSC-Regular-10" d="M 320 1875 
L 320 1440 
L 3552 1440 
L 3552 1875 
L 320 1875 
z
" transform="scale(0.015625)"/>
      <path id="PingFangSC-Regular-e43" d="M 5670 4128 
L 4147 4128 
L 4147 5242 
L 3686 5242 
L 3686 4128 
L 2694 4128 
L 2694 5242 
L 2234 5242 
L 2234 4128 
L 730 4128 
L 730 -627 
L 1171 -627 
L 1171 -301 
L 5229 -301 
L 5229 -627 
L 5670 -627 
L 5670 4128 
z
M 1171 141 
L 1171 1773 
L 2234 1773 
L 2234 141 
L 1171 141 
z
M 2694 1773 
L 3686 1773 
L 3686 141 
L 2694 141 
L 2694 1773 
z
M 4147 1773 
L 5229 1773 
L 5229 141 
L 4147 141 
L 4147 1773 
z
M 1171 2208 
L 1171 3680 
L 2234 3680 
L 2234 2208 
L 1171 2208 
z
M 2694 3680 
L 3686 3680 
L 3686 2208 
L 2694 2208 
L 2694 3680 
z
M 4147 3680 
L 5229 3680 
L 5229 2208 
L 4147 2208 
L 4147 3680 
z
" transform="scale(0.015625)"/>
      <path id="PingFangSC-Regular-155a" d="M 2547 634 
C 1920 390 1184 192 339 51 
L 397 -397 
C 1203 -250 1920 -51 2547 192 
L 2547 634 
z
M 1408 5261 
C 1152 4499 851 3821 506 3232 
C 448 3149 384 3091 314 3066 
L 422 2643 
C 781 2688 1139 2733 1491 2784 
C 1158 2189 870 1766 634 1523 
C 576 1472 506 1427 422 1389 
L 550 966 
C 1165 1050 1805 1203 2477 1421 
L 2477 1837 
C 2016 1683 1555 1562 1094 1472 
C 1466 1926 1939 2694 2502 3776 
L 2093 3930 
C 1965 3674 1837 3430 1722 3200 
C 1434 3155 1146 3117 858 3091 
C 1190 3590 1523 4256 1850 5088 
L 1408 5261 
z
M 5651 4096 
L 4058 3872 
L 4058 5229 
L 3597 5229 
L 3597 3808 
L 2618 3667 
L 2688 3245 
L 3610 3379 
C 3616 3072 3635 2778 3667 2502 
L 2509 2317 
L 2573 1882 
L 3725 2067 
C 3750 1901 3776 1741 3814 1574 
C 3891 1229 3987 922 4109 640 
C 3635 288 3104 19 2515 -173 
L 2784 -544 
C 3328 -378 3840 -115 4314 237 
C 4352 154 4403 77 4461 0 
C 4736 -384 5024 -576 5331 -589 
C 5664 -589 5920 -160 6099 685 
L 5709 941 
C 5594 256 5446 -90 5280 -90 
C 5114 -90 4928 70 4717 384 
C 4691 422 4672 467 4646 506 
C 5043 851 5408 1274 5747 1766 
L 5382 2016 
C 5114 1606 4806 1248 4461 928 
C 4371 1184 4294 1472 4230 1805 
C 4211 1907 4192 2022 4179 2138 
L 5894 2406 
L 5824 2842 
L 4128 2573 
C 4102 2848 4083 3136 4070 3443 
L 5715 3674 
L 5651 4096 
z
M 4774 5248 
L 4416 5024 
C 4736 4730 4992 4454 5171 4205 
L 5530 4454 
C 5350 4678 5101 4941 4774 5248 
z
" transform="scale(0.015625)"/>
      <path id="PingFangSC-Regular-1866" d="M 4781 1914 
C 5037 1914 5222 1952 5338 2022 
C 5472 2112 5562 2342 5606 2720 
L 5190 2854 
C 5158 2586 5101 2419 5024 2362 
C 4960 2323 4851 2298 4698 2298 
L 3309 2298 
C 3142 2298 3059 2394 3059 2573 
L 3059 2739 
L 4858 2938 
L 4800 3322 
L 3059 3130 
L 3059 3686 
L 5376 3686 
C 5299 3462 5216 3258 5114 3066 
L 5555 2944 
C 5696 3251 5798 3565 5869 3885 
L 5869 4096 
L 3309 4096 
L 3309 4499 
L 5389 4499 
L 5389 4883 
L 3309 4883 
L 3309 5267 
L 2842 5267 
L 2842 4096 
L 800 4096 
L 800 2016 
C 787 1056 608 269 275 -352 
L 640 -678 
C 1050 77 1254 979 1254 2029 
L 1254 3686 
L 2605 3686 
L 2605 3078 
L 1517 2957 
L 1574 2573 
L 2605 2688 
L 2605 2470 
C 2605 2099 2797 1914 3194 1914 
L 4781 1914 
z
M 2842 1683 
L 2842 -109 
L 1267 -109 
L 1267 -531 
L 6003 -531 
L 6003 -109 
L 4442 -109 
L 4442 1677 
L 3994 1677 
L 3994 -109 
L 3283 -109 
L 3283 1683 
L 2842 1683 
z
M 5402 1606 
C 5222 1184 4986 762 4685 333 
L 5069 134 
C 5363 557 5600 986 5786 1427 
L 5402 1606 
z
M 1933 1613 
L 1542 1459 
C 1760 1082 1958 640 2144 141 
L 2534 307 
C 2368 768 2163 1203 1933 1613 
z
" transform="scale(0.015625)"/>
      <path id="PingFangSC-Regular-505" d="M 1178 5069 
L 826 4819 
C 1171 4461 1459 4122 1683 3802 
L 2042 4051 
C 1837 4346 1549 4685 1178 5069 
z
M 3430 2368 
L 3059 2138 
C 3494 1638 3834 1178 4090 768 
L 4493 1050 
C 4243 1421 3891 1862 3430 2368 
z
M 2630 5229 
L 2630 4467 
C 2624 4186 2611 3917 2592 3648 
L 550 3648 
L 550 3200 
L 2541 3200 
C 2458 2560 2317 2003 2118 1530 
C 1786 806 1184 230 326 -205 
L 589 -614 
C 1459 -186 2080 410 2458 1171 
C 2720 1722 2899 2394 3002 3200 
L 5216 3200 
C 5216 2381 5190 1619 5139 922 
C 5088 230 4877 -134 4518 -160 
C 4250 -160 3955 -147 3629 -122 
L 3750 -570 
C 3968 -582 4230 -595 4544 -595 
C 4973 -595 5274 -346 5440 154 
C 5600 653 5683 1818 5683 3648 
L 3046 3648 
C 3066 3910 3078 4186 3085 4467 
L 3085 5229 
L 2630 5229 
z
" transform="scale(0.015625)"/>
      <path id="PingFangSC-Regular-771" d="M 5011 1766 
L 1414 1766 
L 1414 -653 
L 1869 -653 
L 1869 -346 
L 4550 -346 
L 4550 -653 
L 5011 -653 
L 5011 1766 
z
M 1869 102 
L 1869 1331 
L 4550 1331 
L 4550 102 
L 1869 102 
z
M 2349 5274 
C 1914 4518 1350 3904 666 3430 
L 960 3072 
C 1286 3302 1587 3565 1862 3859 
C 2131 3539 2445 3245 2803 2989 
C 2093 2592 1254 2317 288 2157 
L 486 1741 
C 1536 1939 2438 2266 3206 2726 
C 3949 2272 4851 1952 5914 1766 
L 6112 2182 
C 5139 2336 4301 2605 3597 2982 
C 4128 3360 4582 3814 4960 4339 
L 4960 4710 
L 2534 4710 
C 2630 4858 2720 5011 2810 5171 
L 2349 5274 
z
M 2131 4166 
C 2157 4205 2189 4243 2227 4282 
L 4384 4282 
C 4051 3878 3654 3526 3194 3219 
C 2784 3488 2426 3808 2131 4166 
z
" transform="scale(0.015625)"/>
      <path id="PingFangSC-Regular-642" d="M 3034 5210 
C 2291 4403 1357 3725 230 3181 
L 454 2778 
C 1587 3347 2502 4019 3200 4794 
C 3955 3981 4858 3322 5920 2810 
L 6150 3219 
C 5101 3706 4173 4365 3366 5210 
L 3034 5210 
z
M 1414 3187 
L 1414 2746 
L 2963 2746 
L 2963 1632 
L 1107 1632 
L 1107 1190 
L 2963 1190 
L 2963 6 
L 538 6 
L 538 -448 
L 5869 -448 
L 5869 6 
L 3437 6 
L 3437 1190 
L 5286 1190 
L 5286 1632 
L 3437 1632 
L 3437 2746 
L 4986 2746 
L 4986 3187 
L 1414 3187 
z
" transform="scale(0.015625)"/>
      <path id="PingFangSC-Regular-1c01" d="M 979 2547 
L 979 915 
L 2963 915 
L 2963 557 
L 819 557 
L 819 250 
L 2963 250 
L 2963 -128 
L 339 -128 
L 339 -486 
L 6061 -486 
L 6061 -128 
L 3424 -128 
L 3424 250 
L 5594 250 
L 5594 557 
L 3424 557 
L 3424 915 
L 5434 915 
L 5434 2547 
L 979 2547 
z
M 4992 1203 
L 3424 1203 
L 3424 1594 
L 4992 1594 
L 4992 1203 
z
M 2963 1203 
L 1421 1203 
L 1421 1594 
L 2963 1594 
L 2963 1203 
z
M 1421 1862 
L 1421 2259 
L 2963 2259 
L 2963 1862 
L 1421 1862 
z
M 3424 2259 
L 4992 2259 
L 4992 1862 
L 3424 1862 
L 3424 2259 
z
M 1120 5126 
L 1120 3546 
L 5299 3546 
L 5299 5126 
L 1120 5126 
z
M 4851 3821 
L 1568 3821 
L 1568 4198 
L 4851 4198 
L 4851 3821 
z
M 1568 4474 
L 1568 4845 
L 4851 4845 
L 4851 4474 
L 1568 4474 
z
M 333 3213 
L 333 2867 
L 6067 2867 
L 6067 3213 
L 333 3213 
z
" transform="scale(0.015625)"/>
      <path id="PingFangSC-Regular-91a" d="M 512 4749 
L 512 4358 
L 1645 4358 
L 1645 2240 
L 416 2240 
L 416 1830 
L 1747 1830 
C 1440 1453 973 1146 339 902 
L 576 512 
C 1318 858 1856 1299 2189 1830 
L 4198 1830 
C 4531 1299 5094 864 5888 531 
L 6074 928 
C 5434 1146 4954 1446 4646 1830 
L 5978 1830 
L 5978 2240 
L 4749 2240 
L 4749 4358 
L 5882 4358 
L 5882 4749 
L 4749 4749 
L 4749 5235 
L 4301 5235 
L 4301 4749 
L 2093 4749 
L 2093 5235 
L 1645 5235 
L 1645 4749 
L 512 4749 
z
M 2093 2240 
L 2093 2701 
L 4301 2701 
L 4301 2240 
L 2093 2240 
z
M 2093 3066 
L 2093 3520 
L 4301 3520 
L 4301 3066 
L 2093 3066 
z
M 2093 3885 
L 2093 4358 
L 4301 4358 
L 4301 3885 
L 2093 3885 
z
M 2976 1606 
L 2976 1094 
L 1664 1094 
L 1664 685 
L 2976 685 
L 2976 6 
L 736 6 
L 736 -422 
L 5619 -422 
L 5619 6 
L 3424 6 
L 3424 685 
L 4723 685 
L 4723 1094 
L 3424 1094 
L 3424 1606 
L 2976 1606 
z
" transform="scale(0.015625)"/>
     </defs>
     <use xlink:href="#PingFangSC-Regular-1dda"/>
     <use xlink:href="#PingFangSC-Regular-1d3e" transform="translate(100 0)"/>
     <use xlink:href="#PingFangSC-Regular-10" transform="translate(200 0)"/>
     <use xlink:href="#PingFangSC-Regular-195f" transform="translate(260.5 0)"/>
     <use xlink:href="#PingFangSC-Regular-134d" transform="translate(360.5 0)"/>
     <use xlink:href="#PingFangSC-Regular-e43" transform="translate(460.5 0)"/>
     <use xlink:href="#PingFangSC-Regular-155a" transform="translate(560.5 0)"/>
     <use xlink:href="#PingFangSC-Regular-481" transform="translate(660.5 0)"/>
     <use xlink:href="#PingFangSC-Regular-1866" transform="translate(760.5 0)"/>
     <use xlink:href="#PingFangSC-Regular-155a" transform="translate(860.5 0)"/>
     <use xlink:href="#PingFangSC-Regular-505" transform="translate(960.5 0)"/>
     <use xlink:href="#PingFangSC-Regular-771" transform="translate(1060.5 0)"/>
     <use xlink:href="#PingFangSC-Regular-16d4" transform="translate(1160.5 0)"/>
     <use xlink:href="#PingFangSC-Regular-642" transform="translate(1260.5 0)"/>
     <use xlink:href="#PingFangSC-Regular-1c01" transform="translate(1360.5 0)"/>
     <use xlink:href="#PingFangSC-Regular-91a" transform="translate(1460.5 0)"/>
     <use xlink:href="#PingFangSC-Regular-155a" transform="translate(1560.5 0)"/>
     <use xlink:href="#PingFangSC-Regular-482" transform="translate(1660.5 0)"/>
    </g>
   </g>
   <g id="legend_1">
    <g id="line2d_29">
     <path d="M 50.940625 231.368281 
L 59.940625 231.368281 
L 68.940625 231.368281 
" style="fill: none; stroke: #854f0b; stroke-width: 1.5; stroke-linecap: square"/>
     <g>
      <use xlink:href="#md95aa811ec" x="59.940625" y="231.368281" style="fill: #854f0b; stroke: #854f0b"/>
     </g>
    </g>
    <g id="text_15">
     <!-- 关键词规则 -->
     <g transform="translate(76.140625 234.518281) scale(0.09 -0.09)">
      <defs>
       <path id="PingFangSC-Regular-649" d="M 1984 5203 
L 1562 4998 
C 1824 4678 2067 4314 2298 3904 
L 2714 4115 
C 2483 4512 2240 4870 1984 5203 
z
M 4390 5261 
C 4198 4723 3987 4269 3744 3898 
L 819 3898 
L 819 3450 
L 2963 3450 
L 2963 3149 
C 2957 2835 2925 2541 2867 2259 
L 454 2259 
L 454 1811 
L 2752 1811 
C 2662 1530 2541 1280 2387 1050 
C 2003 538 1318 122 339 -192 
L 589 -595 
C 1574 -282 2285 160 2720 723 
C 2925 998 3085 1318 3206 1683 
C 3552 710 4422 -64 5830 -634 
L 6099 -205 
C 4755 275 3930 947 3616 1811 
L 5946 1811 
L 5946 2259 
L 3347 2259 
C 3398 2528 3424 2829 3437 3149 
L 3437 3450 
L 5574 3450 
L 5574 3898 
L 4256 3898 
C 4486 4262 4678 4678 4832 5139 
L 4390 5261 
z
" transform="scale(0.015625)"/>
       <path id="PingFangSC-Regular-1cab" d="M 621 2931 
L 621 2797 
L 1139 2797 
L 1139 2010 
L 422 2010 
L 422 1587 
L 1139 1587 
L 1139 128 
C 1139 38 1082 -26 966 -70 
L 1152 -454 
C 1574 -294 1952 -90 2278 154 
L 2202 550 
C 1984 371 1766 230 1555 115 
L 1555 1587 
L 2214 1587 
L 2214 2010 
L 1555 2010 
L 1555 2797 
L 2118 2797 
L 2118 3206 
L 742 3206 
C 851 3475 954 3757 1043 4064 
L 2138 4064 
L 2138 4506 
L 1165 4506 
C 1216 4723 1261 4947 1312 5184 
L 877 5274 
C 736 4467 518 3731 218 3066 
L 576 2835 
C 589 2867 608 2899 621 2931 
z
M 5760 2541 
L 5760 3430 
L 6061 3430 
L 6061 3802 
L 5760 3802 
L 5760 4717 
L 4870 4717 
L 4870 5190 
L 4454 5190 
L 4454 4717 
L 3821 4717 
L 3821 4346 
L 4454 4346 
L 4454 3802 
L 3603 3802 
L 3603 3430 
L 4454 3430 
L 4454 2912 
L 3821 2912 
L 3821 2541 
L 4454 2541 
L 4454 2048 
L 3757 2048 
L 3757 1683 
L 4454 1683 
L 4454 1178 
L 3597 1178 
L 3597 794 
L 4454 794 
L 4454 166 
L 4870 166 
L 4870 794 
L 5990 794 
L 5990 1178 
L 4870 1178 
L 4870 1683 
L 5830 1683 
L 5830 2048 
L 4870 2048 
L 4870 2541 
L 5760 2541 
z
M 4870 4346 
L 5370 4346 
L 5370 3802 
L 4870 3802 
L 4870 4346 
z
M 4870 3430 
L 5370 3430 
L 5370 2912 
L 4870 2912 
L 4870 3430 
z
M 5139 -115 
C 4518 -90 4064 -13 3776 128 
C 3571 224 3379 371 3213 576 
C 3411 1139 3520 1824 3533 2624 
L 3533 2874 
L 2874 2874 
C 3085 3258 3296 3712 3514 4250 
L 3514 4627 
L 2355 4627 
L 2355 4230 
L 3098 4230 
C 2893 3725 2656 3251 2400 2816 
L 2400 2496 
L 3162 2496 
C 3136 1933 3059 1434 2931 998 
C 2778 1293 2656 1626 2573 2003 
L 2227 1875 
C 2355 1338 2534 890 2758 531 
C 2618 211 2432 -64 2214 -294 
L 2528 -602 
C 2726 -384 2899 -134 3040 160 
C 3155 26 3290 -90 3443 -186 
C 3776 -403 4422 -518 5370 -531 
L 6067 -531 
L 6150 -90 
C 5901 -102 5562 -115 5139 -115 
z
" transform="scale(0.015625)"/>
       <path id="PingFangSC-Regular-19af" d="M 5197 -614 
C 5645 -614 5875 -397 5875 26 
L 5875 4960 
L 2362 4960 
L 2362 4525 
L 5421 4525 
L 5421 160 
C 5421 -70 5312 -186 5101 -186 
L 4346 -173 
L 4461 -614 
L 5197 -614 
z
M 2509 3770 
L 2509 3328 
L 4979 3328 
L 4979 3770 
L 2509 3770 
z
M 2739 2630 
L 2739 646 
L 4723 646 
L 4723 2630 
L 2739 2630 
z
M 4288 1050 
L 3187 1050 
L 3187 2227 
L 4288 2227 
L 4288 1050 
z
M 1037 5165 
L 717 4851 
C 1178 4506 1549 4173 1818 3859 
L 2131 4179 
C 1837 4512 1472 4838 1037 5165 
z
M 282 3270 
L 282 2829 
L 1210 2829 
L 1210 282 
C 1210 179 1158 90 1069 6 
L 1248 -403 
C 1645 -122 2022 205 2374 570 
L 2253 1062 
C 2035 838 1837 640 1651 467 
L 1651 3270 
L 282 3270 
z
" transform="scale(0.015625)"/>
       <path id="PingFangSC-Regular-1962" d="M 454 4301 
L 454 3859 
L 1370 3859 
L 1370 2803 
L 365 2803 
L 365 2355 
L 1344 2355 
C 1254 1146 902 243 282 -358 
L 621 -659 
C 1146 -154 1498 550 1683 1453 
C 1933 1178 2240 800 2598 314 
L 2854 710 
C 2483 1146 2112 1536 1754 1875 
C 1773 2029 1792 2189 1805 2355 
L 2771 2355 
L 2771 2803 
L 1830 2803 
L 1830 3859 
L 2682 3859 
L 2682 4301 
L 1830 4301 
L 1830 5178 
L 1370 5178 
L 1370 4301 
L 454 4301 
z
M 5651 4960 
L 3059 4960 
L 3059 1446 
L 3501 1446 
L 3501 4531 
L 5210 4531 
L 5210 1446 
L 5651 1446 
L 5651 4960 
z
M 5478 -557 
C 5683 -557 5830 -506 5933 -410 
C 6035 -294 6112 26 6150 550 
L 5754 678 
C 5728 282 5690 38 5632 -45 
C 5587 -109 5510 -141 5402 -141 
L 5075 -141 
C 4934 -141 4870 -70 4870 70 
L 4870 1414 
L 4454 1414 
L 4454 -26 
C 4454 -378 4614 -557 4947 -557 
L 5478 -557 
z
M 4147 4000 
L 4147 2867 
C 4128 2061 3987 1402 3725 896 
C 3443 410 2950 19 2246 -269 
L 2490 -659 
C 3206 -358 3731 58 4051 582 
C 4378 1152 4550 1914 4563 2867 
L 4563 4000 
L 4147 4000 
z
" transform="scale(0.015625)"/>
       <path id="PingFangSC-Regular-69e" d="M 3360 4966 
L 634 4966 
L 634 966 
L 1082 966 
L 1082 4518 
L 2912 4518 
L 2912 1024 
L 3360 1024 
L 3360 4966 
z
M 2502 851 
L 2182 538 
C 2643 128 3014 -250 3283 -608 
L 3629 -269 
C 3322 102 2950 480 2502 851 
z
M 1773 4102 
L 1773 2086 
C 1760 1478 1645 986 1434 608 
C 1203 243 800 -51 224 -269 
L 486 -678 
C 1088 -448 1517 -122 1786 294 
C 2054 742 2202 1338 2221 2086 
L 2221 4102 
L 1773 4102 
z
M 4090 4672 
L 4090 678 
L 4538 678 
L 4538 4672 
L 4090 4672 
z
M 5235 -576 
C 5645 -576 5856 -365 5856 51 
L 5856 5210 
L 5395 5210 
L 5395 166 
C 5395 -45 5286 -154 5075 -154 
C 4819 -154 4550 -141 4269 -128 
L 4371 -576 
L 5235 -576 
z
" transform="scale(0.015625)"/>
      </defs>
      <use xlink:href="#PingFangSC-Regular-649"/>
      <use xlink:href="#PingFangSC-Regular-1cab" transform="translate(100 0)"/>
      <use xlink:href="#PingFangSC-Regular-19af" transform="translate(200 0)"/>
      <use xlink:href="#PingFangSC-Regular-1962" transform="translate(300 0)"/>
      <use xlink:href="#PingFangSC-Regular-69e" transform="translate(400 0)"/>
     </g>
    </g>
    <g id="line2d_30">
     <path d="M 50.940625 244.868281 
L 59.940625 244.868281 
L 68.940625 244.868281 
" style="fill: none; stroke: #185fa5; stroke-width: 1.5; stroke-linecap: square"/>
     <g>
      <use xlink:href="#mddf71e059e" x="59.940625" y="244.868281" style="fill: #185fa5; stroke: #185fa5"/>
     </g>
    </g>
    <g id="text_16">
     <!-- encoder-only -->
     <g transform="translate(76.140625 248.018281) scale(0.09 -0.09)">
      <defs>
       <path id="PingFangSC-Regular-46" d="M 1824 3398 
C 1331 3398 941 3226 659 2874 
C 397 2554 269 2144 269 1638 
C 269 1133 397 723 659 410 
C 934 77 1318 -90 1818 -90 
C 2227 -90 2554 19 2803 230 
C 3059 448 3219 774 3296 1197 
L 2784 1197 
C 2707 627 2381 339 1818 339 
C 1485 339 1229 461 1056 691 
C 877 922 794 1242 794 1645 
C 794 2048 883 2368 1062 2605 
C 1248 2848 1504 2970 1824 2970 
C 2086 2970 2298 2912 2464 2784 
C 2624 2656 2726 2464 2771 2208 
L 3277 2208 
C 3219 2611 3066 2912 2810 3110 
C 2560 3302 2234 3398 1824 3398 
z
" transform="scale(0.015625)"/>
       <path id="PingFangSC-Regular-52" d="M 1875 3398 
C 1376 3398 986 3232 691 2886 
C 410 2560 269 2150 269 1651 
C 269 1158 410 749 691 429 
C 986 83 1376 -90 1875 -90 
C 2368 -90 2765 83 3066 429 
C 3341 749 3482 1158 3482 1651 
C 3482 2150 3341 2560 3059 2886 
C 2765 3232 2368 3398 1875 3398 
z
M 1875 2970 
C 2221 2970 2496 2835 2701 2566 
C 2874 2323 2963 2022 2963 1651 
C 2963 1293 2874 986 2701 742 
C 2496 474 2221 339 1875 339 
C 1523 339 1248 474 1056 742 
C 877 986 794 1286 794 1651 
C 794 2022 877 2323 1056 2566 
C 1248 2835 1523 2970 1875 2970 
z
" transform="scale(0.015625)"/>
       <path id="PingFangSC-Regular-47" d="M 2842 4659 
L 2842 2701 
C 2586 3168 2221 3398 1747 3398 
C 1274 3398 909 3226 640 2867 
C 390 2547 269 2150 269 1664 
C 269 1165 390 755 640 435 
C 909 90 1286 -90 1773 -90 
C 2272 -90 2643 122 2874 544 
L 2874 0 
L 3354 0 
L 3354 4659 
L 2842 4659 
z
M 1856 2976 
C 2150 2976 2394 2861 2579 2618 
C 2758 2381 2854 2067 2854 1683 
L 2854 1619 
C 2854 1248 2771 947 2611 717 
C 2426 461 2170 333 1837 333 
C 1478 333 1210 467 1030 723 
C 870 954 794 1267 794 1664 
C 794 2061 870 2368 1037 2592 
C 1216 2848 1491 2976 1856 2976 
z
" transform="scale(0.015625)"/>
       <path id="PingFangSC-Regular-55" d="M 1850 3398 
C 1619 3398 1421 3328 1248 3187 
C 1107 3078 992 2925 902 2733 
L 902 3309 
L 397 3309 
L 397 0 
L 902 0 
L 902 1754 
C 902 2061 986 2323 1165 2541 
C 1338 2771 1555 2880 1811 2880 
C 1971 2880 2138 2861 2304 2810 
L 2304 3322 
C 2182 3373 2029 3398 1850 3398 
z
" transform="scale(0.015625)"/>
       <path id="PingFangSC-Regular-4f" d="M 499 4659 
L 499 0 
L 1005 0 
L 1005 4659 
L 499 4659 
z
" transform="scale(0.015625)"/>
       <path id="PingFangSC-Regular-5c" d="M 32 3309 
L 1344 77 
L 774 -1267 
L 1331 -1267 
L 3142 3309 
L 2579 3309 
L 1600 698 
L 589 3309 
L 32 3309 
z
" transform="scale(0.015625)"/>
      </defs>
      <use xlink:href="#PingFangSC-Regular-48"/>
      <use xlink:href="#PingFangSC-Regular-51" transform="translate(55.5 0)"/>
      <use xlink:href="#PingFangSC-Regular-46" transform="translate(111.40625 0)"/>
      <use xlink:href="#PingFangSC-Regular-52" transform="translate(166.109375 0)"/>
      <use xlink:href="#PingFangSC-Regular-47" transform="translate(224.703125 0)"/>
      <use xlink:href="#PingFangSC-Regular-48" transform="translate(283.296875 0)"/>
      <use xlink:href="#PingFangSC-Regular-55" transform="translate(338.796875 0)"/>
      <use xlink:href="#PingFangSC-Regular-10" transform="translate(375.296875 0)"/>
      <use xlink:href="#PingFangSC-Regular-52" transform="translate(435.796875 0)"/>
      <use xlink:href="#PingFangSC-Regular-51" transform="translate(494.390625 0)"/>
      <use xlink:href="#PingFangSC-Regular-4f" transform="translate(550.296875 0)"/>
      <use xlink:href="#PingFangSC-Regular-5c" transform="translate(573.796875 0)"/>
     </g>
    </g>
    <g id="line2d_31">
     <path d="M 50.940625 258.89 
L 59.940625 258.89 
L 68.940625 258.89 
" style="fill: none; stroke: #534ab7; stroke-width: 1.5; stroke-linecap: square"/>
     <g>
      <use xlink:href="#m039676b59d" x="59.940625" y="258.89" style="fill: #534ab7; stroke: #534ab7"/>
     </g>
    </g>
    <g id="text_17">
     <!-- Qwen3.5-0.8B LoRA -->
     <g transform="translate(76.140625 262.04) scale(0.09 -0.09)">
      <defs>
       <path id="PingFangSC-Regular-34" d="M 2458 4659 
C 1766 4659 1229 4429 832 3968 
C 454 3533 269 2970 269 2278 
C 269 1594 454 1030 832 595 
C 1229 141 1766 -90 2451 -90 
C 2938 -90 3354 32 3699 262 
C 3872 32 4045 -211 4224 -467 
L 4570 -166 
C 4397 83 4224 326 4045 557 
C 4051 570 4064 582 4077 595 
C 4448 1030 4640 1587 4640 2278 
C 4640 2976 4448 3539 4077 3974 
C 3680 4435 3136 4659 2458 4659 
z
M 2458 4192 
C 2982 4192 3392 4019 3686 3667 
C 3968 3322 4115 2861 4115 2278 
C 4115 1734 3987 1293 3731 954 
C 3475 1267 3213 1562 2950 1843 
L 2637 1542 
C 2893 1274 3149 973 3405 646 
C 3149 467 2829 378 2451 378 
C 1926 378 1510 557 1216 915 
C 934 1261 794 1715 794 2278 
C 794 2848 934 3302 1216 3648 
C 1517 4013 1933 4192 2458 4192 
z
" transform="scale(0.015625)"/>
       <path id="PingFangSC-Regular-5a" d="M 32 3309 
L 1158 0 
L 1638 0 
L 2419 2662 
L 3187 0 
L 3674 0 
L 4800 3309 
L 4237 3309 
L 3424 627 
L 2656 3309 
L 2176 3309 
L 1408 627 
L 595 3309 
L 32 3309 
z
" transform="scale(0.015625)"/>
       <path id="PingFangSC-Regular-16" d="M 1965 4659 
C 1530 4659 1178 4538 909 4288 
C 627 4038 461 3693 422 3251 
L 941 3251 
C 973 3558 1075 3795 1254 3962 
C 1427 4128 1664 4205 1971 4205 
C 2266 4205 2502 4134 2669 3981 
C 2822 3840 2906 3642 2906 3386 
C 2906 3130 2822 2931 2662 2790 
C 2502 2656 2272 2586 1965 2586 
L 1613 2586 
L 1613 2176 
L 1984 2176 
C 2304 2176 2547 2106 2726 1952 
C 2906 1798 2995 1587 2995 1312 
C 2995 1043 2899 819 2720 640 
C 2522 454 2259 358 1933 358 
C 1645 358 1408 442 1216 595 
C 992 781 870 1056 858 1414 
L 326 1414 
C 365 902 544 512 870 243 
C 1146 26 1498 -90 1933 -90 
C 2406 -90 2790 45 3085 314 
C 3373 576 3520 915 3520 1331 
C 3520 1600 3443 1824 3290 2003 
C 3149 2182 2944 2310 2675 2394 
C 3174 2560 3424 2906 3424 3418 
C 3424 3802 3290 4102 3027 4326 
C 2758 4550 2400 4659 1965 4659 
z
" transform="scale(0.015625)"/>
       <path id="PingFangSC-Regular-25" d="M 461 4570 
L 461 0 
L 2490 0 
C 2957 0 3328 96 3597 275 
C 3910 493 4070 826 4070 1274 
C 4070 1581 3981 1824 3814 2016 
C 3648 2208 3418 2336 3117 2387 
C 3347 2464 3533 2586 3674 2752 
C 3808 2938 3878 3162 3878 3418 
C 3878 3776 3757 4058 3514 4262 
C 3264 4467 2925 4570 2502 4570 
L 461 4570 
z
M 986 4128 
L 2381 4128 
C 2701 4128 2944 4070 3110 3942 
C 3277 3814 3360 3622 3360 3366 
C 3360 3104 3270 2906 3104 2771 
C 2938 2643 2694 2573 2374 2573 
L 986 2573 
L 986 4128 
z
M 986 2138 
L 2445 2138 
C 2797 2138 3066 2074 3251 1933 
C 3443 1792 3546 1574 3546 1280 
C 3546 986 3430 762 3206 621 
C 3014 506 2765 442 2445 442 
L 986 442 
L 986 2138 
z
" transform="scale(0.015625)"/>
       <path id="PingFangSC-Regular-2f" d="M 461 4570 
L 461 0 
L 3622 0 
L 3622 454 
L 979 454 
L 979 4570 
L 461 4570 
z
" transform="scale(0.015625)"/>
       <path id="PingFangSC-Regular-35" d="M 461 4570 
L 461 0 
L 986 0 
L 986 1965 
L 2368 1965 
C 2656 1965 2874 1914 3027 1798 
C 3194 1683 3290 1485 3315 1216 
L 3373 608 
C 3392 352 3456 154 3558 0 
L 4128 0 
C 3994 166 3910 390 3885 672 
L 3814 1376 
C 3763 1837 3520 2112 3085 2208 
L 3085 2221 
C 3347 2285 3552 2413 3706 2618 
C 3846 2816 3917 3040 3917 3296 
C 3917 3718 3776 4038 3507 4256 
C 3245 4467 2886 4570 2432 4570 
L 461 4570 
z
M 986 4115 
L 2368 4115 
C 2720 4115 2982 4045 3149 3904 
C 3302 3770 3386 3558 3386 3277 
C 3386 3008 3302 2803 3142 2656 
C 2963 2502 2701 2419 2368 2419 
L 986 2419 
L 986 4115 
z
" transform="scale(0.015625)"/>
       <path id="PingFangSC-Regular-24" d="M 1798 4570 
L 0 0 
L 563 0 
L 1050 1280 
L 3149 1280 
L 3635 0 
L 4205 0 
L 2406 4570 
L 1798 4570 
z
M 1216 1722 
L 2093 4006 
L 2118 4006 
L 2982 1722 
L 1216 1722 
z
" transform="scale(0.015625)"/>
      </defs>
      <use xlink:href="#PingFangSC-Regular-34"/>
      <use xlink:href="#PingFangSC-Regular-5a" transform="translate(76.703125 0)"/>
      <use xlink:href="#PingFangSC-Regular-48" transform="translate(152.203125 0)"/>
      <use xlink:href="#PingFangSC-Regular-51" transform="translate(207.703125 0)"/>
      <use xlink:href="#PingFangSC-Regular-16" transform="translate(263.609375 0)"/>
      <use xlink:href="#PingFangSC-Regular-11" transform="translate(323.609375 0)"/>
      <use xlink:href="#PingFangSC-Regular-18" transform="translate(350.015625 0)"/>
      <use xlink:href="#PingFangSC-Regular-10" transform="translate(410.015625 0)"/>
      <use xlink:href="#PingFangSC-Regular-13" transform="translate(470.515625 0)"/>
      <use xlink:href="#PingFangSC-Regular-11" transform="translate(530.515625 0)"/>
      <use xlink:href="#PingFangSC-Regular-1b" transform="translate(556.921875 0)"/>
      <use xlink:href="#PingFangSC-Regular-25" transform="translate(616.921875 0)"/>
      <use xlink:href="#PingFangSC-Regular-3" transform="translate(684.625 0)"/>
      <use xlink:href="#PingFangSC-Regular-2f" transform="translate(717.921875 0)"/>
      <use xlink:href="#PingFangSC-Regular-52" transform="translate(776.71875 0)"/>
      <use xlink:href="#PingFangSC-Regular-35" transform="translate(835.3125 0)"/>
      <use xlink:href="#PingFangSC-Regular-24" transform="translate(902.90625 0)"/>
     </g>
    </g>
   </g>
  </g>
  <g id="axes_2">
   <g id="patch_7">
    <path d="M 451.440625 271.4 
L 813.6 271.4 
L 813.6 22.66 
L 451.440625 22.66 
z
" style="fill: #ffffff"/>
   </g>
   <g id="patch_8">
    <path d="M 467.902415 271.4 
L 511.477741 271.4 
L 511.477741 114.335446 
L 467.902415 114.335446 
z
" clip-path="url(#pbb6257afce)" style="fill: #0f6e56; opacity: 0.85"/>
   </g>
   <g id="patch_9">
    <path d="M 588.944987 271.4 
L 632.520312 271.4 
L 632.520312 70.004919 
L 588.944987 70.004919 
z
" clip-path="url(#pbb6257afce)" style="fill: #0f6e56; opacity: 0.85"/>
   </g>
   <g id="patch_10">
    <path d="M 709.987558 271.4 
L 753.562884 271.4 
L 753.562884 65.599269 
L 709.987558 65.599269 
z
" clip-path="url(#pbb6257afce)" style="fill: #0f6e56; opacity: 0.85"/>
   </g>
   <g id="patch_11">
    <path d="M 511.477741 271.4 
L 555.053067 271.4 
L 555.053067 119.542122 
L 511.477741 119.542122 
z
" clip-path="url(#pbb6257afce)" style="fill: #a32d2d; opacity: 0.85"/>
   </g>
   <g id="patch_12">
    <path d="M 632.520313 271.4 
L 676.095638 271.4 
L 676.095638 85.140115 
L 632.520313 85.140115 
z
" clip-path="url(#pbb6257afce)" style="fill: #a32d2d; opacity: 0.85"/>
   </g>
   <g id="patch_13">
    <path d="M 753.562884 271.4 
L 797.13821 271.4 
L 797.13821 88.639339 
L 753.562884 88.639339 
z
" clip-path="url(#pbb6257afce)" style="fill: #a32d2d; opacity: 0.85"/>
   </g>
   <g id="matplotlib.axis_3">
    <g id="xtick_6">
     <g id="line2d_32">
      <g>
       <use xlink:href="#m6cca17c498" x="511.477741" y="271.4" style="stroke: #000000; stroke-width: 0.8"/>
      </g>
     </g>
     <g id="text_18">
      <!-- 关键词规则 -->
      <g transform="translate(488.977741 286.14) scale(0.09 -0.09)">
       <use xlink:href="#PingFangSC-Regular-649"/>
       <use xlink:href="#PingFangSC-Regular-1cab" transform="translate(100 0)"/>
       <use xlink:href="#PingFangSC-Regular-19af" transform="translate(200 0)"/>
       <use xlink:href="#PingFangSC-Regular-1962" transform="translate(300 0)"/>
       <use xlink:href="#PingFangSC-Regular-69e" transform="translate(400 0)"/>
      </g>
     </g>
    </g>
    <g id="xtick_7">
     <g id="line2d_33">
      <g>
       <use xlink:href="#m6cca17c498" x="632.520313" y="271.4" style="stroke: #000000; stroke-width: 0.8"/>
      </g>
     </g>
     <g id="text_19">
      <!-- encoder-only -->
      <g transform="translate(604.467734 286.14) scale(0.09 -0.09)">
       <use xlink:href="#PingFangSC-Regular-48"/>
       <use xlink:href="#PingFangSC-Regular-51" transform="translate(55.5 0)"/>
       <use xlink:href="#PingFangSC-Regular-46" transform="translate(111.40625 0)"/>
       <use xlink:href="#PingFangSC-Regular-52" transform="translate(166.109375 0)"/>
       <use xlink:href="#PingFangSC-Regular-47" transform="translate(224.703125 0)"/>
       <use xlink:href="#PingFangSC-Regular-48" transform="translate(283.296875 0)"/>
       <use xlink:href="#PingFangSC-Regular-55" transform="translate(338.796875 0)"/>
       <use xlink:href="#PingFangSC-Regular-10" transform="translate(375.296875 0)"/>
       <use xlink:href="#PingFangSC-Regular-52" transform="translate(435.796875 0)"/>
       <use xlink:href="#PingFangSC-Regular-51" transform="translate(494.390625 0)"/>
       <use xlink:href="#PingFangSC-Regular-4f" transform="translate(550.296875 0)"/>
       <use xlink:href="#PingFangSC-Regular-5c" transform="translate(573.796875 0)"/>
      </g>
     </g>
    </g>
    <g id="xtick_8">
     <g id="line2d_34">
      <g>
       <use xlink:href="#m6cca17c498" x="753.562884" y="271.4" style="stroke: #000000; stroke-width: 0.8"/>
      </g>
     </g>
     <g id="text_20">
      <!-- Qwen3.5-0.8B LoRA -->
      <g transform="translate(709.975462 286.14) scale(0.09 -0.09)">
       <use xlink:href="#PingFangSC-Regular-34"/>
       <use xlink:href="#PingFangSC-Regular-5a" transform="translate(76.703125 0)"/>
       <use xlink:href="#PingFangSC-Regular-48" transform="translate(152.203125 0)"/>
       <use xlink:href="#PingFangSC-Regular-51" transform="translate(207.703125 0)"/>
       <use xlink:href="#PingFangSC-Regular-16" transform="translate(263.609375 0)"/>
       <use xlink:href="#PingFangSC-Regular-11" transform="translate(323.609375 0)"/>
       <use xlink:href="#PingFangSC-Regular-18" transform="translate(350.015625 0)"/>
       <use xlink:href="#PingFangSC-Regular-10" transform="translate(410.015625 0)"/>
       <use xlink:href="#PingFangSC-Regular-13" transform="translate(470.515625 0)"/>
       <use xlink:href="#PingFangSC-Regular-11" transform="translate(530.515625 0)"/>
       <use xlink:href="#PingFangSC-Regular-1b" transform="translate(556.921875 0)"/>
       <use xlink:href="#PingFangSC-Regular-25" transform="translate(616.921875 0)"/>
       <use xlink:href="#PingFangSC-Regular-3" transform="translate(684.625 0)"/>
       <use xlink:href="#PingFangSC-Regular-2f" transform="translate(717.921875 0)"/>
       <use xlink:href="#PingFangSC-Regular-52" transform="translate(776.71875 0)"/>
       <use xlink:href="#PingFangSC-Regular-35" transform="translate(835.3125 0)"/>
       <use xlink:href="#PingFangSC-Regular-24" transform="translate(902.90625 0)"/>
      </g>
     </g>
    </g>
   </g>
   <g id="matplotlib.axis_4">
    <g id="ytick_7">
     <g id="line2d_35">
      <path d="M 451.440625 271.4 
L 813.6 271.4 
" clip-path="url(#pbb6257afce)" style="fill: none; stroke-dasharray: 0.8,1.32; stroke-dashoffset: 0; stroke: #b0b0b0; stroke-opacity: 0.35; stroke-width: 0.8"/>
     </g>
     <g id="line2d_36">
      <g>
       <use xlink:href="#m4beb47a70a" x="451.440625" y="271.4" style="stroke: #000000; stroke-width: 0.8"/>
      </g>
     </g>
     <g id="text_21">
      <!-- 0.0 -->
      <g transform="translate(429.8 275.7) scale(0.1 -0.1)">
       <use xlink:href="#PingFangSC-Regular-13"/>
       <use xlink:href="#PingFangSC-Regular-11" transform="translate(60 0)"/>
       <use xlink:href="#PingFangSC-Regular-13" transform="translate(86.40625 0)"/>
      </g>
     </g>
    </g>
    <g id="ytick_8">
     <g id="line2d_37">
      <path d="M 451.440625 229.240678 
L 813.6 229.240678 
" clip-path="url(#pbb6257afce)" style="fill: none; stroke-dasharray: 0.8,1.32; stroke-dashoffset: 0; stroke: #b0b0b0; stroke-opacity: 0.35; stroke-width: 0.8"/>
     </g>
     <g id="line2d_38">
      <g>
       <use xlink:href="#m4beb47a70a" x="451.440625" y="229.240678" style="stroke: #000000; stroke-width: 0.8"/>
      </g>
     </g>
     <g id="text_22">
      <!-- 0.2 -->
      <g transform="translate(429.8 233.540678) scale(0.1 -0.1)">
       <use xlink:href="#PingFangSC-Regular-13"/>
       <use xlink:href="#PingFangSC-Regular-11" transform="translate(60 0)"/>
       <use xlink:href="#PingFangSC-Regular-15" transform="translate(86.40625 0)"/>
      </g>
     </g>
    </g>
    <g id="ytick_9">
     <g id="line2d_39">
      <path d="M 451.440625 187.081356 
L 813.6 187.081356 
" clip-path="url(#pbb6257afce)" style="fill: none; stroke-dasharray: 0.8,1.32; stroke-dashoffset: 0; stroke: #b0b0b0; stroke-opacity: 0.35; stroke-width: 0.8"/>
     </g>
     <g id="line2d_40">
      <g>
       <use xlink:href="#m4beb47a70a" x="451.440625" y="187.081356" style="stroke: #000000; stroke-width: 0.8"/>
      </g>
     </g>
     <g id="text_23">
      <!-- 0.4 -->
      <g transform="translate(429.8 191.381356) scale(0.1 -0.1)">
       <use xlink:href="#PingFangSC-Regular-13"/>
       <use xlink:href="#PingFangSC-Regular-11" transform="translate(60 0)"/>
       <use xlink:href="#PingFangSC-Regular-17" transform="translate(86.40625 0)"/>
      </g>
     </g>
    </g>
    <g id="ytick_10">
     <g id="line2d_41">
      <path d="M 451.440625 144.922034 
L 813.6 144.922034 
" clip-path="url(#pbb6257afce)" style="fill: none; stroke-dasharray: 0.8,1.32; stroke-dashoffset: 0; stroke: #b0b0b0; stroke-opacity: 0.35; stroke-width: 0.8"/>
     </g>
     <g id="line2d_42">
      <g>
       <use xlink:href="#m4beb47a70a" x="451.440625" y="144.922034" style="stroke: #000000; stroke-width: 0.8"/>
      </g>
     </g>
     <g id="text_24">
      <!-- 0.6 -->
      <g transform="translate(429.8 149.222034) scale(0.1 -0.1)">
       <use xlink:href="#PingFangSC-Regular-13"/>
       <use xlink:href="#PingFangSC-Regular-11" transform="translate(60 0)"/>
       <use xlink:href="#PingFangSC-Regular-19" transform="translate(86.40625 0)"/>
      </g>
     </g>
    </g>
    <g id="ytick_11">
     <g id="line2d_43">
      <path d="M 451.440625 102.762712 
L 813.6 102.762712 
" clip-path="url(#pbb6257afce)" style="fill: none; stroke-dasharray: 0.8,1.32; stroke-dashoffset: 0; stroke: #b0b0b0; stroke-opacity: 0.35; stroke-width: 0.8"/>
     </g>
     <g id="line2d_44">
      <g>
       <use xlink:href="#m4beb47a70a" x="451.440625" y="102.762712" style="stroke: #000000; stroke-width: 0.8"/>
      </g>
     </g>
     <g id="text_25">
      <!-- 0.8 -->
      <g transform="translate(429.8 107.062712) scale(0.1 -0.1)">
       <use xlink:href="#PingFangSC-Regular-13"/>
       <use xlink:href="#PingFangSC-Regular-11" transform="translate(60 0)"/>
       <use xlink:href="#PingFangSC-Regular-1b" transform="translate(86.40625 0)"/>
      </g>
     </g>
    </g>
    <g id="ytick_12">
     <g id="line2d_45">
      <path d="M 451.440625 60.60339 
L 813.6 60.60339 
" clip-path="url(#pbb6257afce)" style="fill: none; stroke-dasharray: 0.8,1.32; stroke-dashoffset: 0; stroke: #b0b0b0; stroke-opacity: 0.35; stroke-width: 0.8"/>
     </g>
     <g id="line2d_46">
      <g>
       <use xlink:href="#m4beb47a70a" x="451.440625" y="60.60339" style="stroke: #000000; stroke-width: 0.8"/>
      </g>
     </g>
     <g id="text_26">
      <!-- 1.0 -->
      <g transform="translate(431.790625 64.90339) scale(0.1 -0.1)">
       <use xlink:href="#PingFangSC-Regular-14"/>
       <use xlink:href="#PingFangSC-Regular-11" transform="translate(40.09375 0)"/>
       <use xlink:href="#PingFangSC-Regular-13" transform="translate(66.5 0)"/>
      </g>
     </g>
    </g>
    <g id="text_27">
     <!-- intent 置信度（均值） -->
     <g transform="translate(424.4 196.890156) rotate(-90) scale(0.1 -0.1)">
      <defs>
       <path id="PingFangSC-Regular-15dd" d="M 454 3418 
L 454 3066 
L 2893 3066 
C 2867 2944 2848 2822 2822 2701 
L 1267 2701 
L 1267 -122 
L 339 -122 
L 339 -493 
L 6067 -493 
L 6067 -122 
L 5139 -122 
L 5139 2701 
L 3283 2701 
C 3309 2816 3328 2938 3354 3066 
L 5952 3066 
L 5952 3418 
L 3405 3418 
L 3443 3789 
L 5517 3789 
L 5517 4986 
L 883 4986 
L 883 3789 
L 2982 3789 
L 2944 3418 
L 454 3418 
z
M 1715 -122 
L 1715 301 
L 4685 301 
L 4685 -122 
L 1715 -122 
z
M 1715 589 
L 1715 992 
L 4685 992 
L 4685 589 
L 1715 589 
z
M 1715 1286 
L 1715 1690 
L 4685 1690 
L 4685 1286 
L 1715 1286 
z
M 1715 1978 
L 1715 2381 
L 4685 2381 
L 4685 1978 
L 1715 1978 
z
M 5082 4115 
L 4128 4115 
L 4128 4646 
L 5082 4646 
L 5082 4115 
z
M 3706 4115 
L 2694 4115 
L 2694 4646 
L 3706 4646 
L 3706 4115 
z
M 2278 4115 
L 1325 4115 
L 1325 4646 
L 2278 4646 
L 2278 4115 
z
" transform="scale(0.015625)"/>
       <path id="PingFangSC-Regular-b36" d="M 1670 1709 
L 1670 1312 
L 2061 1312 
C 2355 909 2746 557 3219 262 
C 2643 19 1978 -154 1235 -262 
L 1434 -666 
C 2278 -525 3027 -294 3674 13 
C 4282 -294 5030 -518 5914 -666 
L 6112 -269 
C 5350 -166 4685 6 4109 250 
C 4627 557 5062 934 5421 1370 
L 5421 1709 
L 1670 1709 
z
M 2547 1312 
L 4819 1312 
C 4486 986 4096 704 3648 467 
C 3206 698 2842 979 2547 1312 
z
M 1299 3142 
L 2374 3142 
L 2374 2144 
L 4966 2144 
L 4966 3142 
L 5952 3142 
L 5952 3565 
L 4966 3565 
L 4966 4090 
L 4518 4090 
L 4518 3565 
L 2822 3565 
L 2822 4083 
L 2374 4083 
L 2374 3565 
L 1299 3565 
L 1299 4294 
L 5965 4294 
L 5965 4730 
L 3770 4730 
C 3699 4922 3622 5101 3546 5261 
L 3059 5184 
C 3149 5043 3226 4896 3302 4730 
L 838 4730 
L 838 2643 
C 826 1382 634 397 262 -314 
L 608 -621 
C 1043 198 1274 1286 1299 2643 
L 1299 3142 
z
M 2822 3142 
L 4518 3142 
L 4518 2534 
L 2822 2534 
L 2822 3142 
z
" transform="scale(0.015625)"/>
       <path id="PingFangSC-Regular-8d0" d="M 4806 1792 
C 4218 1402 3514 1069 2694 800 
L 2886 365 
C 3699 653 4378 986 4928 1363 
L 4806 1792 
z
M 3526 3149 
L 3232 2861 
C 3654 2534 3987 2227 4230 1939 
L 4550 2259 
C 4275 2554 3936 2854 3526 3149 
z
M 3360 5267 
C 3168 4358 2797 3584 2253 2950 
L 2560 2554 
C 2880 2925 3149 3341 3366 3808 
L 5446 3808 
C 5434 1869 5402 717 5338 346 
C 5280 13 5088 -154 4755 -154 
C 4499 -154 4198 -141 3853 -128 
L 3968 -563 
C 4378 -576 4666 -589 4838 -589 
C 5395 -589 5709 -326 5779 192 
C 5856 698 5894 2054 5894 4256 
L 3552 4256 
C 3661 4557 3750 4877 3821 5210 
L 3360 5267 
z
M 301 3526 
L 301 3078 
L 1005 3078 
L 1005 800 
C 755 736 499 685 230 640 
L 358 154 
C 1075 307 1747 506 2368 742 
L 2368 1222 
C 2074 1107 1779 1011 1472 922 
L 1472 3078 
L 2131 3078 
L 2131 3526 
L 1472 3526 
L 1472 5203 
L 1005 5203 
L 1005 3526 
L 301 3526 
z
" transform="scale(0.015625)"/>
       <path id="PingFangSC-Regular-a9ca" d="M 3942 5254 
C 3930 5050 3910 4838 3891 4627 
L 2208 4627 
L 2208 4205 
L 3846 4205 
C 3821 4019 3789 3834 3763 3648 
L 2592 3648 
L 2592 -26 
L 1933 -26 
L 1933 -448 
L 6125 -448 
L 6125 -26 
L 5517 -26 
L 5517 3648 
L 4218 3648 
C 4243 3827 4275 4013 4301 4205 
L 5939 4205 
L 5939 4627 
L 4352 4627 
C 4365 4806 4384 4998 4397 5190 
L 3942 5254 
z
M 3034 -26 
L 3034 538 
L 5075 538 
L 5075 -26 
L 3034 -26 
z
M 3034 909 
L 3034 1446 
L 5075 1446 
L 5075 909 
L 3034 909 
z
M 3034 1818 
L 3034 2342 
L 5075 2342 
L 5075 1818 
L 3034 1818 
z
M 3034 2714 
L 3034 3232 
L 5075 3232 
L 5075 2714 
L 3034 2714 
z
M 1146 3078 
L 1146 -640 
L 1594 -640 
L 1594 3866 
C 1779 4243 1939 4640 2067 5056 
L 1651 5248 
C 1370 4262 909 3386 275 2624 
L 429 2138 
C 691 2432 928 2746 1146 3078 
z
" transform="scale(0.015625)"/>
      </defs>
      <use xlink:href="#PingFangSC-Regular-4c"/>
      <use xlink:href="#PingFangSC-Regular-51" transform="translate(25.59375 0)"/>
      <use xlink:href="#PingFangSC-Regular-57" transform="translate(81.5 0)"/>
      <use xlink:href="#PingFangSC-Regular-48" transform="translate(117 0)"/>
      <use xlink:href="#PingFangSC-Regular-51" transform="translate(172.5 0)"/>
      <use xlink:href="#PingFangSC-Regular-57" transform="translate(228.40625 0)"/>
      <use xlink:href="#PingFangSC-Regular-3" transform="translate(263.90625 0)"/>
      <use xlink:href="#PingFangSC-Regular-15dd" transform="translate(297.203125 0)"/>
      <use xlink:href="#PingFangSC-Regular-5de" transform="translate(397.203125 0)"/>
      <use xlink:href="#PingFangSC-Regular-b36" transform="translate(497.203125 0)"/>
      <use xlink:href="#PingFangSC-Regular-481" transform="translate(597.203125 0)"/>
      <use xlink:href="#PingFangSC-Regular-8d0" transform="translate(697.203125 0)"/>
      <use xlink:href="#PingFangSC-Regular-a9ca" transform="translate(797.203125 0)"/>
      <use xlink:href="#PingFangSC-Regular-482" transform="translate(897.203125 0)"/>
     </g>
    </g>
   </g>
   <g id="patch_14">
    <path d="M 451.440625 271.4 
L 451.440625 22.66 
" style="fill: none; stroke: #000000; stroke-width: 0.8; stroke-linejoin: miter; stroke-linecap: square"/>
   </g>
   <g id="patch_15">
    <path d="M 813.6 271.4 
L 813.6 22.66 
" style="fill: none; stroke: #000000; stroke-width: 0.8; stroke-linejoin: miter; stroke-linecap: square"/>
   </g>
   <g id="patch_16">
    <path d="M 451.440625 271.4 
L 813.6 271.4 
" style="fill: none; stroke: #000000; stroke-width: 0.8; stroke-linejoin: miter; stroke-linecap: square"/>
   </g>
   <g id="patch_17">
    <path d="M 451.440625 22.66 
L 813.6 22.66 
" style="fill: none; stroke: #000000; stroke-width: 0.8; stroke-linejoin: miter; stroke-linecap: square"/>
   </g>
   <g id="text_28">
    <!-- 0.75 -->
    <g transform="translate(481.645703 111.215446) scale(0.08 -0.08)">
     <use xlink:href="#PingFangSC-Regular-13"/>
     <use xlink:href="#PingFangSC-Regular-11" transform="translate(60 0)"/>
     <use xlink:href="#PingFangSC-Regular-1a" transform="translate(86.40625 0)"/>
     <use xlink:href="#PingFangSC-Regular-18" transform="translate(141.109375 0)"/>
    </g>
   </g>
   <g id="text_29">
    <!-- 0.96 -->
    <g transform="translate(602.4764 66.884919) scale(0.08 -0.08)">
     <use xlink:href="#PingFangSC-Regular-13"/>
     <use xlink:href="#PingFangSC-Regular-11" transform="translate(60 0)"/>
     <use xlink:href="#PingFangSC-Regular-1c" transform="translate(86.40625 0)"/>
     <use xlink:href="#PingFangSC-Regular-19" transform="translate(146.40625 0)"/>
    </g>
   </g>
   <g id="text_30">
    <!-- 0.98 -->
    <g transform="translate(723.518971 62.479269) scale(0.08 -0.08)">
     <use xlink:href="#PingFangSC-Regular-13"/>
     <use xlink:href="#PingFangSC-Regular-11" transform="translate(60 0)"/>
     <use xlink:href="#PingFangSC-Regular-1c" transform="translate(86.40625 0)"/>
     <use xlink:href="#PingFangSC-Regular-1b" transform="translate(146.40625 0)"/>
    </g>
   </g>
   <g id="text_31">
    <!-- 0.72 -->
    <g transform="translate(525.221029 116.422122) scale(0.08 -0.08)">
     <use xlink:href="#PingFangSC-Regular-13"/>
     <use xlink:href="#PingFangSC-Regular-11" transform="translate(60 0)"/>
     <use xlink:href="#PingFangSC-Regular-1a" transform="translate(86.40625 0)"/>
     <use xlink:href="#PingFangSC-Regular-15" transform="translate(141.109375 0)"/>
    </g>
   </g>
   <g id="text_32">
    <!-- 0.88 -->
    <g transform="translate(646.051725 82.020115) scale(0.08 -0.08)">
     <use xlink:href="#PingFangSC-Regular-13"/>
     <use xlink:href="#PingFangSC-Regular-11" transform="translate(60 0)"/>
     <use xlink:href="#PingFangSC-Regular-1b" transform="translate(86.40625 0)"/>
     <use xlink:href="#PingFangSC-Regular-1b" transform="translate(146.40625 0)"/>
    </g>
   </g>
   <g id="text_33">
    <!-- 0.87 -->
    <g transform="translate(767.306172 85.519339) scale(0.08 -0.08)">
     <use xlink:href="#PingFangSC-Regular-13"/>
     <use xlink:href="#PingFangSC-Regular-11" transform="translate(60 0)"/>
     <use xlink:href="#PingFangSC-Regular-1b" transform="translate(86.40625 0)"/>
     <use xlink:href="#PingFangSC-Regular-1a" transform="translate(146.40625 0)"/>
    </g>
   </g>
   <g id="text_34">
    <!-- 判对 vs 判错的置信度差距 -->
    <g transform="translate(568.428984 16.66) scale(0.11 -0.11)">
     <defs>
      <path id="PingFangSC-Regular-6a3" d="M 922 4941 
L 525 4806 
C 698 4410 845 3994 960 3558 
L 1376 3667 
C 1235 4141 1088 4570 922 4941 
z
M 3027 5005 
C 2893 4467 2733 4026 2547 3680 
L 2950 3533 
C 3142 3923 3302 4378 3430 4896 
L 3027 5005 
z
M 506 3251 
L 506 2816 
L 1747 2816 
C 1741 2470 1709 2150 1651 1843 
L 352 1843 
L 352 1402 
L 1549 1402 
C 1338 685 954 115 390 -301 
L 755 -621 
C 1370 -134 1792 544 2016 1402 
L 3597 1402 
L 3597 1843 
L 2106 1843 
C 2157 2144 2182 2470 2195 2816 
L 3418 2816 
L 3418 3251 
L 2195 3251 
L 2195 5203 
L 1747 5203 
L 1747 3251 
L 506 3251 
z
M 4083 4627 
L 4083 678 
L 4531 678 
L 4531 4627 
L 4083 4627 
z
M 5222 -582 
C 5638 -582 5850 -365 5850 58 
L 5850 5210 
L 5395 5210 
L 5395 173 
C 5395 -58 5286 -173 5069 -173 
C 4819 -173 4557 -160 4282 -141 
L 4384 -582 
L 5222 -582 
z
" transform="scale(0.015625)"/>
      <path id="PingFangSC-Regular-a52" d="M 3053 3987 
L 3053 3546 
L 4909 3546 
L 4909 141 
C 4909 -83 4787 -198 4550 -198 
C 4256 -198 3942 -186 3610 -166 
L 3706 -621 
L 4710 -621 
C 5146 -621 5370 -403 5370 26 
L 5370 3546 
L 6080 3546 
L 6080 3987 
L 5370 3987 
L 5370 5242 
L 4909 5242 
L 4909 3987 
L 3053 3987 
z
M 762 3571 
L 454 3283 
C 902 2784 1312 2291 1670 1811 
C 1338 1184 870 640 269 179 
L 538 -224 
C 1126 262 1600 813 1952 1427 
C 2182 1101 2394 781 2586 461 
L 2918 794 
C 2694 1152 2445 1517 2176 1875 
C 2509 2586 2688 3379 2720 4250 
L 2720 4589 
L 550 4589 
L 550 4141 
L 2304 4141 
C 2259 3462 2118 2835 1882 2259 
C 1536 2694 1165 3136 762 3571 
z
M 3398 2790 
L 3046 2534 
C 3443 2042 3770 1574 4026 1133 
L 4390 1389 
C 4160 1798 3827 2266 3398 2790 
z
" transform="scale(0.015625)"/>
      <path id="PingFangSC-Regular-59" d="M 32 3309 
L 1280 0 
L 1798 0 
L 3053 3309 
L 2490 3309 
L 1542 640 
L 595 3309 
L 32 3309 
z
" transform="scale(0.015625)"/>
      <path id="PingFangSC-Regular-56" d="M 1568 3398 
C 1197 3398 890 3315 659 3149 
C 410 2982 288 2765 288 2483 
C 288 2202 410 1990 666 1837 
C 819 1734 1094 1638 1485 1542 
C 1843 1453 2080 1382 2189 1331 
C 2394 1229 2502 1088 2502 902 
C 2502 531 2202 339 1613 339 
C 1331 339 1120 390 979 493 
C 838 608 742 794 704 1056 
L 205 1056 
C 282 294 755 -90 1626 -90 
C 2560 -90 3027 256 3027 934 
C 3027 1222 2893 1446 2630 1613 
C 2458 1722 2176 1824 1779 1920 
C 1446 2010 1216 2080 1094 2138 
C 902 2234 813 2355 813 2496 
C 813 2643 883 2758 1024 2842 
C 1152 2931 1331 2970 1562 2970 
C 1824 2970 2029 2918 2170 2816 
C 2298 2726 2381 2573 2426 2368 
L 2925 2368 
C 2835 3059 2387 3398 1568 3398 
z
" transform="scale(0.015625)"/>
      <path id="PingFangSC-Regular-1c99" d="M 2797 4518 
L 2797 4102 
L 3488 4102 
L 3488 3283 
L 2630 3283 
L 2630 2854 
L 6157 2854 
L 6157 3283 
L 5286 3283 
L 5286 4102 
L 6010 4102 
L 6010 4518 
L 5286 4518 
L 5286 5248 
L 4851 5248 
L 4851 4518 
L 3923 4518 
L 3923 5248 
L 3488 5248 
L 3488 4518 
L 2797 4518 
z
M 3923 3283 
L 3923 4102 
L 4851 4102 
L 4851 3283 
L 3923 3283 
z
M 5728 2342 
L 3091 2342 
L 3091 -646 
L 3533 -646 
L 3533 -339 
L 5293 -339 
L 5293 -653 
L 5728 -653 
L 5728 2342 
z
M 3533 77 
L 3533 813 
L 5293 813 
L 5293 77 
L 3533 77 
z
M 3533 1222 
L 3533 1933 
L 5293 1933 
L 5293 1222 
L 3533 1222 
z
M 1107 5216 
C 922 4442 621 3738 205 3098 
L 582 2861 
C 819 3219 1024 3622 1203 4064 
L 2573 4064 
L 2573 4506 
L 1370 4506 
C 1434 4704 1498 4909 1555 5126 
L 1107 5216 
z
M 915 3213 
L 915 2797 
L 1318 2797 
L 1318 2010 
L 442 2010 
L 442 1587 
L 1318 1587 
L 1318 128 
C 1318 38 1254 -26 1126 -64 
L 1318 -461 
C 1869 -307 2362 -115 2784 115 
L 2701 525 
C 2381 333 2074 186 1766 83 
L 1766 1587 
L 2656 1587 
L 2656 2010 
L 1766 2010 
L 1766 2797 
L 2438 2797 
L 2438 3213 
L 915 3213 
z
" transform="scale(0.015625)"/>
      <path id="PingFangSC-Regular-ae7" d="M 672 4518 
L 672 4090 
L 3002 4090 
C 2970 3904 2931 3718 2893 3533 
L 1043 3533 
L 1043 3104 
L 2771 3104 
C 2707 2918 2637 2739 2554 2560 
L 486 2560 
L 486 2125 
L 2330 2125 
C 2304 2080 2272 2035 2246 1984 
C 1798 1306 1126 717 230 230 
L 538 -166 
C 1152 205 1664 614 2080 1056 
L 3334 1056 
L 3334 26 
L 1216 26 
L 1216 -422 
L 5965 -422 
L 5965 26 
L 3802 26 
L 3802 1056 
L 5568 1056 
L 5568 1504 
L 2458 1504 
C 2509 1574 2560 1645 2611 1722 
C 2688 1850 2758 1984 2835 2125 
L 5971 2125 
L 5971 2560 
L 3034 2560 
C 3104 2733 3168 2912 3232 3104 
L 5414 3104 
L 5414 3533 
L 3354 3533 
C 3398 3712 3437 3898 3475 4090 
L 5754 4090 
L 5754 4518 
L 4486 4518 
C 4621 4736 4723 4966 4794 5216 
L 4314 5280 
C 4250 5018 4147 4762 4013 4518 
L 2528 4518 
C 2426 4794 2317 5037 2202 5254 
L 1728 5178 
C 1850 4979 1965 4762 2067 4518 
L 672 4518 
z
" transform="scale(0.015625)"/>
      <path id="PingFangSC-Regular-1a97" d="M 595 4966 
L 595 2944 
L 1517 2944 
L 1517 224 
C 1350 186 1171 141 992 102 
L 992 2304 
L 582 2304 
L 582 13 
C 467 -13 346 -32 230 -58 
L 358 -506 
C 1286 -307 2099 -96 2790 128 
L 2790 582 
C 2522 499 2240 416 1946 333 
L 1946 1510 
L 2656 1510 
L 2656 1946 
L 1946 1946 
L 1946 2944 
L 2579 2944 
L 2579 4966 
L 595 4966 
z
M 2131 3373 
L 1043 3373 
L 1043 4538 
L 2131 4538 
L 2131 3373 
z
M 5715 1286 
L 5715 3462 
L 3539 3462 
L 3539 4550 
L 5939 4550 
L 5939 4992 
L 3098 4992 
L 3098 -397 
L 6035 -397 
L 6035 45 
L 3539 45 
L 3539 1286 
L 5715 1286 
z
M 3539 3040 
L 5280 3040 
L 5280 1715 
L 3539 1715 
L 3539 3040 
z
" transform="scale(0.015625)"/>
     </defs>
     <use xlink:href="#PingFangSC-Regular-6a3"/>
     <use xlink:href="#PingFangSC-Regular-a52" transform="translate(100 0)"/>
     <use xlink:href="#PingFangSC-Regular-3" transform="translate(200 0)"/>
     <use xlink:href="#PingFangSC-Regular-59" transform="translate(233.296875 0)"/>
     <use xlink:href="#PingFangSC-Regular-56" transform="translate(281.5 0)"/>
     <use xlink:href="#PingFangSC-Regular-3" transform="translate(332 0)"/>
     <use xlink:href="#PingFangSC-Regular-6a3" transform="translate(365.296875 0)"/>
     <use xlink:href="#PingFangSC-Regular-1c99" transform="translate(465.296875 0)"/>
     <use xlink:href="#PingFangSC-Regular-1331" transform="translate(565.296875 0)"/>
     <use xlink:href="#PingFangSC-Regular-15dd" transform="translate(665.296875 0)"/>
     <use xlink:href="#PingFangSC-Regular-5de" transform="translate(765.296875 0)"/>
     <use xlink:href="#PingFangSC-Regular-b36" transform="translate(865.296875 0)"/>
     <use xlink:href="#PingFangSC-Regular-ae7" transform="translate(965.296875 0)"/>
     <use xlink:href="#PingFangSC-Regular-1a97" transform="translate(1065.296875 0)"/>
    </g>
   </g>
   <g id="legend_2">
    <g id="patch_18">
     <path d="M 762.3 38.5 
L 780.3 38.5 
L 780.3 32.2 
L 762.3 32.2 
z
" style="fill: #0f6e56; opacity: 0.85"/>
    </g>
    <g id="text_35">
     <!-- 判对 -->
     <g transform="translate(787.5 38.5) scale(0.09 -0.09)">
      <use xlink:href="#PingFangSC-Regular-6a3"/>
      <use xlink:href="#PingFangSC-Regular-a52" transform="translate(100 0)"/>
     </g>
    </g>
    <g id="patch_19">
     <path d="M 762.3 52 
L 780.3 52 
L 780.3 45.7 
L 762.3 45.7 
z
" style="fill: #a32d2d; opacity: 0.85"/>
    </g>
    <g id="text_36">
     <!-- 判错 -->
     <g transform="translate(787.5 52) scale(0.09 -0.09)">
      <use xlink:href="#PingFangSC-Regular-6a3"/>
      <use xlink:href="#PingFangSC-Regular-1c99" transform="translate(100 0)"/>
     </g>
    </g>
   </g>
  </g>
 </g>
 <defs>
  <clipPath id="pbf2c8c5531">
   <rect x="42.840625" y="22.66" width="362.159375" height="248.74"/>
  </clipPath>
  <clipPath id="pbb6257afce">
   <rect x="451.440625" y="22.66" width="362.159375" height="248.74"/>
  </clipPath>
 </defs>
</svg>
